<svg fill="none" viewBox="0 0 24 24" xmlns="http://www.w3.org/2000/svg">
  <path fill="#fff" fill-rule="evenodd" d="M19.337 3H4.684c-.418-.014-.807.327-.809.748v9.01c.004.686.15 1.365.428 2 .528 1.29 1.465 2.38 2.545 3.253.964.838 2.045 1.5 3.164 2.11.523.285 1.348.879 1.974.879.643 0 1.46-.585 1.999-.879 1.12-.611 2.191-1.283 3.163-2.11 1.08-.893 1.994-1.96 2.546-3.253a5.048 5.048 0 0 0 .428-2v-9.01c.044-.43-.38-.754-.785-.748Z" clip-rule="evenodd"/>
  <path fill="url(#Bitwarden-Color-24_svg__a)" d="M5.033 2h13.965a2.047 2.047 0 0 1 1.373.528c.366.33.662.854.626 1.49v8.727a6.238 6.238 0 0 1-.51 2.431c-.621 1.476-1.63 2.66-2.758 3.613-.953.826-1.981 1.493-3.02 2.082l-.208.117c-.103.057-.22.129-.39.231a11.3 11.3 0 0 1-.548.315c-.357.19-.94.466-1.576.466-.635 0-1.22-.285-1.57-.472a11.63 11.63 0 0 1-.542-.314c-.126-.076-.221-.135-.302-.182l-.077-.044c-1.092-.608-2.208-1.299-3.222-2.194-1.131-.935-2.169-2.145-2.769-3.63A6.236 6.236 0 0 1 3 12.745V3.973c.004-1.147.986-1.99 2.033-1.972Zm-.012 1.25c-.398-.014-.77.318-.771.727v8.76c.004.667.143 1.327.408 1.945.503 1.254 1.398 2.314 2.428 3.162.92.814 1.95 1.457 3.018 2.051.498.278 1.286.855 1.883.855.613 0 1.393-.57 1.906-.855 1.068-.594 2.09-1.247 3.018-2.05 1.029-.869 1.902-1.907 2.428-3.163a4.986 4.986 0 0 0 .408-1.945v-8.76c.042-.417-.362-.733-.749-.727H5.021Zm12.976 9.477c-.002.43-.092.858-.266 1.263-.428.994-1.126 1.822-1.948 2.516a16.34 16.34 0 0 1-2.553 1.755c-.41.23-.8.507-1.23.7V5.001h5.997v7.726Z"/>
  <defs>
    <linearGradient id="Bitwarden-Color-24_svg__a" x1="12" x2="12" y1="2" y2="22" gradientUnits="userSpaceOnUse">
      <stop stop-color="#557FF3"/>
      <stop offset="1" stop-color="#2B55CA"/>
    </linearGradient>
  </defs>
</svg>
