<svg width="24" height="24" viewBox="0 0 24 24" fill="none" xmlns="http://www.w3.org/2000/svg">
    <rect width="24" height="24" rx="8" fill="#175DDC"/>
    <path fill-rule="evenodd" clip-rule="evenodd" d="M18.5696 5.43355C18.5084 5.37442 18.4347 5.32763 18.3531 5.29611C18.2715 5.2646 18.1837 5.24904 18.0953 5.25041H5.92191C5.83326 5.24729 5.74493 5.26205 5.66304 5.29367C5.58115 5.32529 5.50765 5.37302 5.44762 5.43355C5.3217 5.55013 5.25065 5.70815 5.25 5.8731V13.3821C5.25336 13.9535 5.37408 14.5191 5.60572 15.0487C5.81931 15.5728 6.11207 16.0661 6.47524 16.5139C6.842 16.9683 7.25929 17.3857 7.72025 17.7593C8.14053 18.1256 8.58971 18.4623 9.06407 18.7666C9.45931 19.023 9.91383 19.2794 10.3486 19.5175C10.7834 19.7556 11.0996 19.9204 11.2774 19.9937C11.4553 20.0669 11.6134 20.1402 11.7122 20.1951C11.7992 20.2313 11.8935 20.25 11.9888 20.25C12.0842 20.25 12.1785 20.2313 12.2655 20.1951C12.4212 20.1363 12.5729 20.069 12.72 19.9937C12.7711 19.9674 12.8335 19.9366 12.9069 19.9004C13.0891 19.8105 13.3388 19.6872 13.6489 19.5175C14.0836 19.2794 14.5184 19.023 14.9334 18.7666C15.404 18.4577 15.8528 18.1212 16.2772 17.7593C16.7331 17.3809 17.1499 16.964 17.5222 16.5139C17.878 16.0617 18.1702 15.5693 18.3917 15.0487C18.6234 14.5191 18.7441 13.9535 18.7474 13.3821V5.8731C18.7557 5.79214 18.7439 5.7105 18.7131 5.63435C18.6823 5.5582 18.6332 5.48954 18.5696 5.43355ZM17.0084 13.4553C17.0084 16.1842 12.0086 18.5285 12.0086 18.5285V6.86209H17.0084V13.4553Z" fill="white"/>
</svg>
