<svg fill="none" viewBox="0 0 24 24" xmlns="http://www.w3.org/2000/svg" xmlns:xlink="http://www.w3.org/1999/xlink"><linearGradient id="a" gradientUnits="userSpaceOnUse" x1="12" x2="12" y1="2" y2="21.841"><stop offset="0" stop-color="#557ff3"/><stop offset="1" stop-color="#2b55ca"/></linearGradient><linearGradient id="b" gradientUnits="userSpaceOnUse" x1="17" x2="17" y1="19.25" y2="11.625"><stop offset="0" stop-color="#888"/><stop offset="1" stop-color="#aaa"/></linearGradient><linearGradient id="c" gradientUnits="userSpaceOnUse" x1="16.986" x2="16.986" y1="17.037" y2="21.154"><stop offset=".008" stop-color="#e2a412"/><stop offset="1" stop-color="#c18010"/></linearGradient><path d="m19.337 3c.405-.006.829.319.785.748v4.252c0 .568-.326 2.8-.326 2.8a4.232 4.232 0 0 0 -2.687-1.048l-.109-.002a4.25 4.25 0 0 0 -4.25 4.25v.865a2.798 2.798 0 0 0 -2 2.682v2.748s-.53-.06-.738-.174c-1.119-.611-2.2-1.272-3.163-2.11-1.08-.872-2.019-1.963-2.546-3.253a5.048 5.048 0 0 1 -.428-2v-9.01c.002-.421.39-.762.809-.747h14.653z" fill="#fff"/><path d="m19.19 2.01c.446.04.863.23 1.181.518.366.33.662.854.626 1.49v6.322c0 .435-.918.699-1.25.418v-6.78c.042-.418-.363-.733-.749-.727h-13.977c-.398-.015-.77.317-.771.726v8.761c.004.667.142 1.327.408 1.944.503 1.254 1.398 2.314 2.428 3.162.92.814 1.95 1.457 3.018 2.051.183.103.408.245.646.385 0 .564-.583 1.102-1.07.815a12.833 12.833 0 0 0 -.184-.107c-1.092-.608-2.208-1.3-3.223-2.194-1.13-.935-2.167-2.145-2.767-3.63a6.238 6.238 0 0 1 -.506-2.419v-8.772c.004-1.147.986-1.99 2.033-1.971h13.965z" fill="url(#a)"/><path d="m17.997 9.868a4.257 4.257 0 0 0 -.888-.116l-.109-.002a4.25 4.25 0 0 0 -4.25 4.25v.865c-.27.08-.521.2-.75.352v-10.215h5.997v4.867z" fill="url(#a)"/><g stroke-width="1.25"><rect height="7.625" rx="2.375" stroke="url(#b)" width="4.75" x="14.625" y="11.625"/><path d="m12.625 17.546a.92.92 0 0 1 .921-.921h6.908a.92.92 0 0 1 .921.921v2.908a.921.921 0 0 1 -.921.921h-6.908a.921.921 0 0 1 -.921-.921z" fill="#fc3" stroke="url(#c)" stroke-linecap="round"/></g></svg>