<svg fill="none" viewBox="0 0 24 24" xmlns="http://www.w3.org/2000/svg">
  <path fill="#fff" d="M19.337 3c.405-.006.829.319.785.748V8c0 .568-.326 2.8-.326 2.8a4.232 4.232 0 0 0-2.687-1.048L17 9.75A4.25 4.25 0 0 0 12.75 14v.865a2.798 2.798 0 0 0-2 2.682v2.748s-.53-.06-.738-.174c-1.119-.611-2.2-1.272-3.163-2.11-1.08-.872-2.019-1.963-2.546-3.253a5.048 5.048 0 0 1-.428-2v-9.01c.002-.421.39-.762.809-.747h14.653Z"/>
  <path fill="url(#Bitwarden-Color-24-1_svg__a)" d="M19.19 2.01c.446.04.863.23 1.181.518.366.33.662.854.626 1.49v6.322c0 .435-.918.699-1.25.418v-6.78c.042-.418-.363-.733-.749-.727H5.021c-.398-.015-.77.317-.771.726v8.761c.004.667.142 1.327.408 1.944.503 1.254 1.398 2.314 2.428 3.162.92.814 1.95 1.457 3.018 2.051.183.103.408.245.646.385 0 .564-.583 1.102-1.07.815a12.833 12.833 0 0 0-.184-.107c-1.092-.608-2.208-1.3-3.223-2.194-1.13-.935-2.167-2.145-2.767-3.63A6.238 6.238 0 0 1 3 12.745V3.973c.004-1.147.986-1.99 2.033-1.971h13.965l.192.008Z"/>
  <path fill="url(#Bitwarden-Color-24-1_svg__b)" d="M17.997 9.868a4.257 4.257 0 0 0-.888-.116L17 9.75A4.25 4.25 0 0 0 12.75 14v.865c-.27.08-.521.2-.75.352V5.002h5.997v4.867Z"/>
  <rect width="4.75" height="7.625" x="14.625" y="11.625" stroke="#888" stroke-width="1.25" rx="2.375"/>
  <path fill="#FC3" stroke="url(#Bitwarden-Color-24-1_svg__c)" stroke-linecap="round" stroke-width="1.25" d="M12.625 17.546a.92.92 0 0 1 .921-.921h6.908a.92.92 0 0 1 .921.921v2.908a.921.921 0 0 1-.921.921h-6.908a.921.921 0 0 1-.921-.921v-2.908Z"/>
  <defs>
    <linearGradient id="Bitwarden-Color-24-1_svg__a" x1="12" x2="12" y1="2" y2="21.841" gradientUnits="userSpaceOnUse">
      <stop stop-color="#557FF3"/>
      <stop offset="1" stop-color="#2B55CA"/>
    </linearGradient>
    <linearGradient id="Bitwarden-Color-24-1_svg__b" x1="12" x2="12" y1="2" y2="21.841" gradientUnits="userSpaceOnUse">
      <stop stop-color="#557FF3"/>
      <stop offset="1" stop-color="#2B55CA"/>
    </linearGradient>
    <linearGradient id="Bitwarden-Color-24-1_svg__c" x1="16.986" x2="16.986" y1="17.037" y2="21.154" gradientUnits="userSpaceOnUse">
      <stop offset=".008" stop-color="#E2A412"/>
      <stop offset="1" stop-color="#C18010"/>
    </linearGradient>
  </defs>
</svg>
