<svg fill="none" height="32" viewBox="0 0 32 32" width="32" xmlns="http://www.w3.org/2000/svg"><path d="m26 4c3.3137 0 6 2.68629 6 6v12c0 3.3137-2.6863 6-6 6h-20c-3.31371 0-5.99999902-2.6863-5.99999888-6l.00000053-12c.00000014-3.31371 2.68628835-6 5.99999835-6z" fill="#006fcf"/><path clip-rule="evenodd" d="m30 22v-12c0-2.20914-1.7909-4-4-4h-20c-2.20914 0-4 1.79086-4 4v12c0 2.2091 1.79086 4 4 4h20c2.2091 0 4-1.7909 4-4zm2-12c0-3.31371-2.6863-6-6-6h-20c-3.31371 0-5.99999821 2.68629-5.99999835 6l-.00000053 12c-.00000014 3.3137 2.68628888 6 5.99999888 6h20c3.3137 0 6-2.6863 6-6z" fill="#000" fill-opacity=".18" fill-rule="evenodd"/><path d="m26.5702 14.9265h2.1202v-4.9265h-2.3073v.686l-.4366-.686h-1.9955v.8731l-.3742-.8731h-3.6792c-.1248 0-.2495.0624-.3742.0624s-.1871.0623-.3118.1247c-.1247.0623-.1871.0623-.3118.1247v-.3118h-10.539l-.3118.8107-.31181-.8107h-2.49443v.8731l-.37416-.8731h-1.99555l-.87305 2.1203v2.8062h1.4343l.24944-.686h.49889l.24944.686h10.97553v-.6236l.4365.6236h3.0557v-.3742c.0623.0624.1871.0624.2494.1248.0624.0623.1871.0623.2495.1247.1247.0623.2494.0623.3741.0623h2.245l.2495-.6859h.4988l.2495.6859h3.0557v-.6236zm3.4298 6.2361v-4.6147h-17.1492l-.4365.6236-.4366-.6236h-4.98884v4.9265h4.98884l.4366-.6236.4365.6236h3.118v-1.0601h-.1247c.4365 0 .8107-.0624 1.1225-.1871v1.3095h2.245v-.6236l.4365.6236h9.2918c.3741-.1247.7483-.187 1.0601-.3741z" fill="#fff"/><path d="m28.9399 19.9777h-1.6838v.686h1.6214c.686 0 1.1225-.4366 1.1225-1.0602s-.3742-.9354-.9978-.9354h-.7483c-.1871 0-.3118-.1247-.3118-.3118s.1247-.3118.3118-.3118h1.4343l.3118-.6859h-1.6837c-.686 0-1.1225.4365-1.1225.9977 0 .6236.3741.9354.9977.9354h.7484c.187 0 .3118.1248.3118.3118.0623.2495-.0624.3742-.3118.3742zm-3.0557 0h-1.6838v.686h1.6214c.686 0 1.1225-.4366 1.1225-1.0602s-.3741-.9354-.9978-.9354h-.7483c-.1871 0-.3118-.1247-.3118-.3118s.1247-.3118.3118-.3118h1.4343l.3118-.6859h-1.6837c-.686 0-1.1225.4365-1.1225.9977 0 .6236.3741.9354.9978.9354h.7483c.1871 0 .3118.1248.3118.3118.0624.2495-.1247.3742-.3118.3742zm-2.1826-1.9955v-.686h-2.6192v3.3051h2.6192v-.686h-1.8709v-.6859h1.8085v-.686h-1.8085v-.6236h1.8709zm-4.2406 0c.3118 0 .4366.187.4366.3741s-.1248.3742-.4366.3742h-.9354v-.8107zm-.9354 1.4343h.3742l.9978 1.1848h.9354l-1.1225-1.2472c.5612-.1247.873-.4989.873-.9978 0-.6236-.4365-1.0601-1.1225-1.0601h-1.7461v3.3051h.7484zm-1.9955-.9978c0 .2494-.1248.4365-.4366.4365h-.9977v-.873h.9354c.3118 0 .4989.187.4989.4365zm-2.1827-1.1225v3.3051h.7484v-1.1225h.9977c.686 0 1.1849-.4365 1.1849-1.1225 0-.6236-.4365-1.1225-1.1225-1.1225zm-1.1225 3.3051h.9355l-1.3096-1.6837 1.3096-1.6214h-.9355l-.8106 1.0601-.8107-1.0601h-.9354l1.3095 1.6214-1.3095 1.6214h.9354l.8107-1.0602zm-2.8062-2.6191v-.686h-2.61915v3.3051h2.61915v-.686h-1.87082v-.6859h1.80842v-.686h-1.80842v-.6236h1.87082zm15.1537-5.862 1.3096 1.9956h.9354v-3.3051h-.7484v2.1826l-.187-.3118-1.1849-1.8708h-.9978v3.3051h.7484v-2.245zm-3.2428-.0623.2495-.686.2494.686.3118.7483h-1.1225zm1.3096 2.0579h.8107l-1.4343-3.3051h-.9978l-1.4343 3.3051h.8107l.3118-.686h1.6214zm-3.4922 0 .3118-.686h-.1871c-.5612 0-.873-.3741-.873-.9354v-.0624c0-.5612.3118-.9354.873-.9354h.8107v-.6859h-.873c-.9978 0-1.5591.6859-1.5591 1.6213v.0624c0 .9978.5613 1.6214 1.4967 1.6214zm-2.8062 0h.7483v-3.2428h-.7483zm-1.6214-2.6192c.3118 0 .4365.1871.4365.3742s-.1247.3742-.4365.3742h-.9354v-.8107zm-.9354 1.4343h.3741l.9978 1.1849h.9354l-1.1225-1.2472c.5613-.1247.8731-.4989.8731-.9978 0-.6236-.4366-1.0601-1.1225-1.0601h-1.7461v3.3051h.7483zm-1.372-1.4343v-.6859h-2.6191v3.3051h2.6191v-.686h-1.8708v-.6859h1.8085v-.686h-1.8085v-.6236h1.8708zm-5.67481 2.6192h.68597l.93541-2.6815v2.6815h.74833v-3.3051h-1.24721l-.74833 2.245-.74833-2.245h-1.24722v3.3051h.74833v-2.6815zm-4.05345-2.0579.24944-.686.24945.686.3118.7483h-1.12249zm1.30958 2.0579h.81069l-1.4343-3.3051h-.93541l-1.4343 3.3051h.81069l.3118-.686h1.62139z" fill="#006fcf"/></svg>