<svg width="32" height="32" viewBox="0 0 32 32" fill="none" xmlns="http://www.w3.org/2000/svg">
<path d="M26 4C29.3137 4 32 6.68629 32 10L32 22C32 25.3137 29.3137 28 26 28L6 28C2.68629 28 9.75697e-07 25.3137 1.12054e-06 22L1.64508e-06 10C1.78993e-06 6.68629 2.68629 4 6 4L26 4Z" fill="white"/>
<path fill-rule="evenodd" clip-rule="evenodd" d="M30 22L30 10C30 7.79086 28.2091 6 26 6L6 6C3.79086 6 2 7.79086 2 10L2 22C2 24.2091 3.79086 26 6 26L26 26C28.2091 26 30 24.2091 30 22ZM32 10C32 6.68629 29.3137 4 26 4L6 4C2.68629 4 1.78993e-06 6.68629 1.64508e-06 10L1.12054e-06 22C9.75697e-07 25.3137 2.68629 28 6 28L26 28C29.3137 28 32 25.3137 32 22L32 10Z" fill="#CCCCCC"/>
<path d="M4 13C4 12.4477 4.44772 12 5 12H9C9.55228 12 10 12.4477 10 13V15C10 15.5523 9.55228 16 9 16H5C4.44772 16 4 15.5523 4 15V13Z" fill="#FFD65C"/>
<path d="M4 20C4 19.4477 4.44772 19 5 19H10C10.5523 19 11 19.4477 11 20C11 20.5523 10.5523 21 10 21H5C4.44772 21 4 20.5523 4 20Z" fill="#AAAAAA"/>
<path d="M12 20C12 19.4477 12.4477 19 13 19H14C14.5523 19 15 19.4477 15 20C15 20.5523 14.5523 21 14 21H13C12.4477 21 12 20.5523 12 20Z" fill="#AAAAAA"/>
<path d="M16 20C16 19.4477 16.4477 19 17 19H27C27.5523 19 28 19.4477 28 20C28 20.5523 27.5523 21 27 21H17C16.4477 21 16 20.5523 16 20Z" fill="#AAAAAA"/>
</svg>
