<svg width="32" height="32" viewBox="0 0 32 32" fill="none" xmlns="http://www.w3.org/2000/svg">
<path d="M26 4C29.3137 4 32 6.68629 32 10L32 22C32 25.3137 29.3137 28 26 28L6 28C2.68629 28 9.75697e-07 25.3137 1.12054e-06 22L1.64508e-06 10C1.78993e-06 6.68629 2.68629 4 6 4L26 4Z" fill="white"/>
<path fill-rule="evenodd" clip-rule="evenodd" d="M30 22L30 10C30 7.79086 28.2091 6 26 6L6 6C3.79086 6 2 7.79086 2 10L2 22C2 24.2091 3.79086 26 6 26L26 26C28.2091 26 30 24.2091 30 22ZM32 10C32 6.68629 29.3137 4 26 4L6 4C2.68629 4 1.78993e-06 6.68629 1.64508e-06 10L1.12054e-06 22C9.75697e-07 25.3137 2.68629 28 6 28L26 28C29.3137 28 32 25.3137 32 22L32 10Z" fill="#CCCCCC"/>
<path fill-rule="evenodd" clip-rule="evenodd" d="M5.92918 17.889C5.92918 17.4844 5.71806 17.511 5.51611 17.5068V17.3898C5.69122 17.3984 5.87077 17.3984 6.04635 17.3984C6.23497 17.3984 6.49106 17.3898 6.82379 17.3898C7.98736 17.3898 8.62116 18.1677 8.62116 18.9644C8.62116 19.4102 8.36053 20.5301 6.76974 20.5301C6.54076 20.5301 6.32928 20.5212 6.11817 20.5212C5.91613 20.5212 5.71806 20.5254 5.51611 20.5301V20.413C5.78544 20.3858 5.91613 20.377 5.92918 20.0711V17.889ZM6.36958 19.999C6.36958 20.3456 6.61697 20.3859 6.83706 20.3859C7.80794 20.3859 8.12651 19.6527 8.12651 18.9825C8.12651 18.1412 7.58739 17.534 6.72026 17.534C6.53562 17.534 6.45066 17.5471 6.36958 17.552V19.999Z" fill="#1A1919"/>
<path fill-rule="evenodd" clip-rule="evenodd" d="M8.77783 20.4132H8.86298C8.98876 20.4132 9.07872 20.4132 9.07872 20.2644V19.0453C9.07872 18.8477 9.01144 18.8203 8.84493 18.7306V18.6588C9.05614 18.5952 9.30797 18.5104 9.32574 18.4968C9.3574 18.4788 9.38396 18.4739 9.40682 18.4739C9.42885 18.4739 9.4381 18.501 9.4381 18.5373V20.2644C9.4381 20.4132 9.53713 20.4132 9.6631 20.4132H9.73918V20.5302C9.58637 20.5302 9.42885 20.5213 9.26762 20.5213C9.10584 20.5213 8.94396 20.5255 8.77783 20.5302V20.4132ZM9.25829 17.7813C9.14121 17.7813 9.03811 17.6734 9.03811 17.5565C9.03811 17.4438 9.14612 17.3401 9.25829 17.3401C9.37491 17.3401 9.47857 17.4349 9.47857 17.5565C9.47857 17.6781 9.37944 17.7813 9.25829 17.7813Z" fill="#1A1919"/>
<path fill-rule="evenodd" clip-rule="evenodd" d="M10.1667 19.0723C10.1667 18.9061 10.117 18.8612 9.90621 18.7756V18.6902C10.0991 18.6272 10.2832 18.5685 10.4991 18.4739C10.5127 18.4739 10.5258 18.4829 10.5258 18.5188V18.8114C10.7823 18.6272 11.0025 18.4739 11.304 18.4739C11.6854 18.4739 11.8202 18.7529 11.8202 19.1038V20.2643C11.8202 20.4131 11.9193 20.4131 12.045 20.4131H12.1261V20.5302C11.9683 20.5302 11.8112 20.5213 11.6496 20.5213C11.4878 20.5213 11.3259 20.5254 11.1641 20.5302V20.4131H11.2452C11.371 20.4131 11.4605 20.4131 11.4605 20.2643V19.0996C11.4605 18.8429 11.304 18.717 11.0476 18.717C10.9037 18.717 10.6745 18.8338 10.5258 18.9332V20.2643C10.5258 20.4131 10.6251 20.4131 10.7509 20.4131H10.8316V20.5302C10.6745 20.5302 10.5172 20.5213 10.3551 20.5213C10.1937 20.5213 10.0317 20.5254 9.87012 20.5302V20.4131H9.95119C10.0769 20.4131 10.1667 20.4131 10.1667 20.2643V19.0723Z" fill="#1A1919"/>
<path fill-rule="evenodd" clip-rule="evenodd" d="M12.4675 19.2886C12.4583 19.3291 12.4583 19.3964 12.4675 19.5495C12.4939 19.9768 12.7686 20.3275 13.1277 20.3275C13.3752 20.3275 13.5686 20.1925 13.7345 20.0264L13.7973 20.0894C13.5905 20.3637 13.3345 20.5978 12.9663 20.5978C12.2516 20.5978 12.1079 19.9046 12.1079 19.6169C12.1079 18.735 12.7009 18.4739 13.0151 18.4739C13.3795 18.4739 13.7707 18.7033 13.7749 19.1803C13.7749 19.2077 13.7749 19.2344 13.7707 19.2614L13.7301 19.2886H12.4675ZM13.2627 19.1444C13.3747 19.1444 13.3879 19.0858 13.3879 19.0316C13.3879 18.8026 13.2487 18.6181 12.9969 18.6181C12.7231 18.6181 12.5343 18.8202 12.4804 19.1444H13.2627Z" fill="#1A1919"/>
<path fill-rule="evenodd" clip-rule="evenodd" d="M13.8784 20.4131H13.9998C14.1252 20.4131 14.2151 20.4131 14.2151 20.2643V19.0004C14.2151 18.8612 14.049 18.8338 13.9815 18.7978V18.7306C14.3095 18.591 14.4894 18.4739 14.5305 18.4739C14.5567 18.4739 14.5702 18.4874 14.5702 18.5326V18.9376H14.5797C14.6917 18.7622 14.8808 18.4739 15.1547 18.4739C15.267 18.4739 15.4106 18.5503 15.4106 18.7124C15.4106 18.8338 15.3257 18.9423 15.1999 18.9423C15.0601 18.9423 15.0601 18.8338 14.9027 18.8338C14.8264 18.8338 14.5748 18.9376 14.5748 19.2077V20.2643C14.5748 20.4131 14.6646 20.4131 14.7904 20.4131H15.0418V20.5302C14.7947 20.5254 14.6066 20.5213 14.4132 20.5213C14.2289 20.5213 14.0401 20.5254 13.8784 20.5302V20.4131Z" fill="#1A1919"/>
<path fill-rule="evenodd" clip-rule="evenodd" d="M15.6082 19.9046C15.6668 20.2015 15.8462 20.4538 16.1748 20.4538C16.4395 20.4538 16.5383 20.2916 16.5383 20.1343C16.5383 19.6031 15.559 19.7743 15.559 19.05C15.559 18.7978 15.7613 18.4739 16.2556 18.4739C16.3992 18.4739 16.5923 18.5147 16.7675 18.6048L16.799 19.0633H16.6957C16.6508 18.78 16.4938 18.6181 16.2058 18.6181C16.0261 18.6181 15.8555 18.7214 15.8555 18.9149C15.8555 19.4416 16.8978 19.2794 16.8978 19.9857C16.8978 20.2824 16.6599 20.5978 16.125 20.5978C15.9454 20.5978 15.7338 20.5347 15.577 20.4447L15.5273 19.9273L15.6082 19.9046Z" fill="#1A1919"/>
<path fill-rule="evenodd" clip-rule="evenodd" d="M20.955 18.2039H20.8429C20.7574 17.678 20.3844 17.4663 19.8815 17.4663C19.3641 17.4663 18.614 17.8125 18.614 18.8922C18.614 19.8013 19.2613 20.4537 19.9531 20.4537C20.3976 20.4537 20.7669 20.1477 20.8565 19.675L20.9599 19.7019L20.8565 20.359C20.6678 20.4761 20.1599 20.5977 19.863 20.5977C18.812 20.5977 18.147 19.9182 18.147 18.9061C18.147 17.9835 18.9693 17.322 19.85 17.322C20.2139 17.322 20.5643 17.4393 20.9103 17.5609L20.955 18.2039Z" fill="#1A1919"/>
<path fill-rule="evenodd" clip-rule="evenodd" d="M21.1172 20.4131H21.2022C21.3285 20.4131 21.4182 20.4131 21.4182 20.2643V17.7591C21.4182 17.4664 21.3509 17.4575 21.1799 17.4079V17.3358C21.3596 17.2774 21.5485 17.1966 21.6431 17.1422C21.6918 17.1156 21.7281 17.0927 21.7414 17.0927C21.7689 17.0927 21.7777 17.12 21.7777 17.1561V20.2643C21.7777 20.4131 21.8767 20.4131 22.0024 20.4131H22.0784V20.5302C21.9261 20.5302 21.7689 20.5213 21.607 20.5213C21.4453 20.5213 21.2837 20.5254 21.1172 20.5302V20.4131Z" fill="#1A1919"/>
<path fill-rule="evenodd" clip-rule="evenodd" d="M24.0024 20.2823C24.0024 20.3636 24.0516 20.3679 24.1278 20.3679C24.182 20.3679 24.2491 20.3636 24.308 20.3636V20.4583C24.1146 20.4761 23.746 20.5706 23.6605 20.5977L23.6381 20.5839V20.2195C23.3687 20.4399 23.1618 20.5977 22.8423 20.5977C22.5997 20.5977 22.3482 20.4399 22.3482 20.0624V18.9104C22.3482 18.7932 22.3304 18.6807 22.0791 18.6586V18.5729C22.241 18.5684 22.5997 18.5416 22.6583 18.5416C22.7082 18.5416 22.7082 18.5729 22.7082 18.672V19.8326C22.7082 19.9677 22.7082 20.3542 23.099 20.3542C23.2516 20.3542 23.4538 20.2376 23.6424 20.0803V18.8698C23.6424 18.7799 23.4269 18.7304 23.2653 18.6857V18.6048C23.6693 18.5773 23.9213 18.5416 23.9662 18.5416C24.0024 18.5416 24.0024 18.5729 24.0024 18.6226V20.2823Z" fill="#1A1919"/>
<path fill-rule="evenodd" clip-rule="evenodd" d="M24.8965 18.7978C25.0762 18.6452 25.3189 18.4739 25.5661 18.4739C26.0874 18.4739 26.402 18.9288 26.402 19.419C26.402 20.0082 25.9704 20.5978 25.3276 20.5978C24.9954 20.5978 24.8201 20.4895 24.703 20.44L24.5686 20.5435L24.4744 20.4942C24.5146 20.2288 24.5372 19.9679 24.5372 19.6933V17.7591C24.5372 17.4664 24.4696 17.4575 24.2988 17.4079V17.3358C24.4788 17.2774 24.6673 17.1966 24.7616 17.1422C24.8112 17.1156 24.847 17.0927 24.8607 17.0927C24.8875 17.0927 24.8965 17.1201 24.8965 17.1561V18.7978ZM24.8963 20.0217C24.8963 20.1926 25.0582 20.4807 25.3592 20.4807C25.8399 20.4807 26.042 20.0083 26.042 19.6077C26.042 19.1219 25.674 18.7171 25.3236 18.7171C25.1566 18.7171 25.0176 18.8252 24.8963 18.9288V20.0217Z" fill="#1A1919"/>
<path fill-rule="evenodd" clip-rule="evenodd" d="M7.93573 22.737L7.94063 22.7322V21.8144C7.94063 21.6135 7.80106 21.5842 7.72776 21.5842H7.67389V21.5107C7.78903 21.5107 7.90148 21.5204 8.01625 21.5204C8.11648 21.5204 8.21718 21.5107 8.31704 21.5107V21.5842H8.28067C8.17766 21.5842 8.06271 21.6037 8.06271 21.895V23.0089C8.06271 23.0947 8.06511 23.1803 8.07715 23.2563H7.98422L6.72523 21.8508V22.8597C6.72523 23.0728 6.7666 23.1459 6.95485 23.1459H6.9965V23.2195C6.89136 23.2195 6.78631 23.2099 6.68117 23.2099C6.57141 23.2099 6.45877 23.2195 6.34863 23.2195V23.1459H6.38297C6.5516 23.1459 6.60297 23.0308 6.60297 22.8356V21.8041C6.60297 21.6672 6.49015 21.5842 6.38056 21.5842H6.34863V21.5107C6.44137 21.5107 6.53688 21.5204 6.62962 21.5204C6.7032 21.5204 6.7741 21.5107 6.8474 21.5107L7.93573 22.737Z" fill="#1A1919"/>
<path fill-rule="evenodd" clip-rule="evenodd" d="M8.07821 23.2666L7.97751 23.2632L6.73666 21.8785V22.8597C6.73962 23.0725 6.77192 23.1331 6.95601 23.1354H7.00839V23.23H6.99756C6.89178 23.23 6.78654 23.2202 6.68224 23.2202C6.57275 23.2202 6.46039 23.23 6.3496 23.23H6.33887V23.1354H6.38403C6.54563 23.1344 6.59181 23.0305 6.59357 22.8355V21.8046C6.59311 21.6742 6.4863 21.5949 6.38172 21.5949H6.33887V21.5001H6.3496C6.44308 21.5001 6.53878 21.5096 6.6305 21.5096C6.70343 21.5096 6.77405 21.5001 6.85651 21.5039L7.93105 22.7149V21.8145C7.92985 21.6201 7.80009 21.5964 7.72892 21.5949H7.66422V21.5001H7.67505C7.79056 21.5001 7.9031 21.5096 8.01731 21.5096C8.1168 21.5096 8.21704 21.5001 8.31811 21.5001H8.32884V21.5949H8.28173C8.18076 21.5974 8.07719 21.6063 8.07423 21.8951V23.0089C8.07423 23.0946 8.07691 23.18 8.08867 23.2544L8.09089 23.2666H8.07821ZM7.98549 23.2452H8.06638C8.05546 23.1715 8.05352 23.0903 8.05352 23.0088V21.895C8.05352 21.6012 8.17652 21.5735 8.28184 21.5733H8.30757V21.5212C8.21123 21.522 8.11469 21.5309 8.01742 21.5309C7.90543 21.5309 7.79659 21.522 7.68608 21.5212L7.6858 21.5733H7.72903C7.80418 21.5735 7.95236 21.6069 7.95236 21.8144L7.94912 22.7398L7.9443 22.7446L7.93597 22.7524L6.84857 21.5212C6.77592 21.5212 6.70521 21.5309 6.63061 21.5309C6.54102 21.5309 6.44921 21.522 6.36054 21.5212L6.36008 21.5733H6.38183C6.4965 21.5735 6.61451 21.6611 6.61451 21.8045V22.8355C6.61451 23.0314 6.55999 23.1564 6.38414 23.1571L6.36054 23.1564V23.209C6.46642 23.2082 6.57554 23.1992 6.68235 23.1992C6.78434 23.1992 6.88615 23.2082 6.98703 23.209V23.1571H6.95612C6.7637 23.1564 6.71604 23.0725 6.71585 22.8596V21.8234L7.98549 23.2452ZM7.93723 22.7369L7.94491 22.7299L7.93723 22.7369ZM7.93092 22.7322V22.7313L7.92898 22.7297L7.93092 22.7322Z" fill="#1A1919"/>
<path fill-rule="evenodd" clip-rule="evenodd" d="M8.68361 21.6331C8.49998 21.6331 8.49286 21.6773 8.45621 21.8558H8.38281C8.39244 21.7872 8.40456 21.7188 8.41215 21.6478C8.42196 21.5789 8.42687 21.5106 8.42687 21.4398H8.48545C8.50517 21.5133 8.56625 21.5106 8.63261 21.5106H9.89373C9.96009 21.5106 10.0211 21.5082 10.0261 21.4348L10.0845 21.4448C10.075 21.5106 10.065 21.5768 10.0579 21.6431C10.0531 21.7091 10.0531 21.775 10.0531 21.8411L9.97962 21.8683C9.97463 21.7779 9.9625 21.6331 9.79868 21.6331H9.39765V22.9354C9.39765 23.1243 9.48336 23.1459 9.60053 23.1459H9.64717V23.2194C9.55175 23.2194 9.38053 23.21 9.24873 23.21C9.10185 23.21 8.93054 23.2194 8.83512 23.2194V23.1459H8.88176C9.01652 23.1459 9.08464 23.1338 9.08464 22.9405V21.6331H8.68361Z" fill="#1A1919"/>
<path fill-rule="evenodd" clip-rule="evenodd" d="M9.64786 23.2299C9.55151 23.2299 9.38047 23.2202 9.24923 23.2202C9.10254 23.2202 8.9315 23.2299 8.83562 23.2299H8.82516V23.1353H8.88226C9.01702 23.1322 9.07116 23.1304 9.07422 22.9406V21.6435H8.68411V21.6221H9.09541V22.9406C9.09541 23.1371 9.01628 23.1569 8.88226 23.1571H8.84607V23.2088C8.94251 23.2082 9.10726 23.1992 9.24923 23.1992C9.37649 23.1992 9.53985 23.2082 9.63675 23.2088V23.1571H9.60103C9.48274 23.1569 9.3876 23.1278 9.3876 22.9355V21.6221H9.79918C9.96318 21.6228 9.98493 21.7623 9.99002 21.8534L10.043 21.8339C10.043 21.7699 10.0432 21.7059 10.0476 21.6416C10.0548 21.5783 10.0637 21.5161 10.0729 21.4534L10.0357 21.4472C10.0244 21.5185 9.95541 21.5223 9.89414 21.5213H8.62034C8.56277 21.5214 8.50011 21.5186 8.47808 21.4503H8.43773C8.43736 21.518 8.43273 21.5837 8.42348 21.6489C8.41617 21.7162 8.40497 21.7808 8.39608 21.8456H8.44828C8.4804 21.6749 8.50132 21.6197 8.68411 21.6221V21.6435C8.50298 21.6472 8.50696 21.6775 8.46707 21.8583L8.46531 21.8667H8.37109L8.37239 21.854C8.38239 21.7857 8.39479 21.7169 8.40191 21.6459C8.41209 21.5779 8.41672 21.51 8.41672 21.4399V21.429H8.49437L8.49622 21.4367C8.5127 21.4984 8.55796 21.4989 8.62034 21.5H9.89414C9.96226 21.4989 10.0119 21.498 10.016 21.4339L10.0169 21.4224L10.028 21.4246L10.0971 21.4355L10.0953 21.4464C10.0856 21.5121 10.0761 21.5779 10.0687 21.6435C10.0642 21.7092 10.0642 21.7749 10.0642 21.8411V21.8485L10.057 21.8514L9.9705 21.8831L9.96994 21.8689C9.96318 21.7768 9.95374 21.6435 9.79918 21.6435H9.40889V22.9355C9.41129 23.12 9.48441 23.133 9.60103 23.1353H9.65822V23.2299H9.64786Z" fill="#1A1919"/>
<path fill-rule="evenodd" clip-rule="evenodd" d="M10.1626 23.1459H10.197C10.2848 23.1459 10.378 23.1339 10.378 23.0064V21.724C10.378 21.5964 10.2848 21.5843 10.197 21.5843H10.1626V21.5107C10.3112 21.5107 10.5661 21.5204 10.7711 21.5204C10.9769 21.5204 11.2308 21.5107 11.3971 21.5107C11.3928 21.6159 11.3951 21.7779 11.4023 21.8854L11.3287 21.9049C11.3169 21.7457 11.2876 21.6187 11.0307 21.6187H10.6913V22.2597H10.9817C11.1284 22.2597 11.1603 22.1767 11.1748 22.0444H11.2481C11.2432 22.14 11.2407 22.2355 11.2407 22.3308C11.2407 22.4241 11.2432 22.517 11.2481 22.6098L11.1748 22.6245C11.1603 22.4778 11.153 22.3824 10.9841 22.3824H10.6913V22.9524C10.6913 23.1118 10.8325 23.1118 10.9891 23.1118C11.2826 23.1118 11.4121 23.0921 11.4855 22.8133L11.5537 22.8302C11.5219 22.9602 11.4928 23.0896 11.4708 23.2195C11.3141 23.2195 11.033 23.21 10.8133 23.21C10.5928 23.21 10.3021 23.2195 10.1626 23.2195V23.1459Z" fill="#1A1919"/>
<path fill-rule="evenodd" clip-rule="evenodd" d="M11.4708 23.23C11.3139 23.23 11.0325 23.2198 10.8132 23.2198C10.5929 23.2198 10.3023 23.23 10.1626 23.23H10.1523V23.1354H10.197C10.2855 23.1339 10.366 23.1261 10.3672 23.0065V21.724C10.366 21.6044 10.2855 21.5964 10.197 21.5949H10.1523V21.5001H10.1626C10.312 21.5001 10.5663 21.5096 10.7712 21.5096C10.9768 21.5096 11.2307 21.5001 11.3972 21.5001H11.408L11.4076 21.5114C11.4061 21.548 11.405 21.5915 11.405 21.6376C11.405 21.7222 11.4076 21.8149 11.4124 21.8846L11.4129 21.8933L11.4047 21.8958L11.3187 21.9183L11.3183 21.9057C11.3039 21.7469 11.2826 21.6314 11.0309 21.629H10.7013L10.7011 22.249H10.9817C11.1227 22.2475 11.1478 22.1754 11.1645 22.0433L11.1651 22.0335H11.2591L11.2589 22.0447C11.2542 22.1404 11.2513 22.2355 11.2513 22.3309C11.2513 22.4234 11.2542 22.5164 11.2589 22.6094L11.2591 22.6183L11.2502 22.6204L11.1651 22.6373L11.1645 22.6258C11.1476 22.4764 11.1465 22.3944 10.9842 22.3927H10.7013V22.9525C10.7016 23.1013 10.8297 23.1004 10.9891 23.1013C11.2835 23.0995 11.4014 23.0851 11.4751 22.8105L11.4776 22.8006L11.4879 22.8023L11.5663 22.8226L11.564 22.8327C11.5323 22.9623 11.5031 23.0917 11.481 23.2213L11.4792 23.23H11.4708ZM11.4618 23.2088C11.4832 23.085 11.511 22.9614 11.541 22.8382L11.4929 22.826C11.4197 23.0998 11.2778 23.1243 10.9892 23.1224C10.8351 23.1224 10.6811 23.1224 10.6803 22.9524V22.3717H10.9843C11.1551 22.3699 11.1723 22.473 11.1845 22.6122L11.2372 22.6014C11.2325 22.5111 11.2301 22.4205 11.2301 22.3308C11.2301 22.2389 11.2325 22.1472 11.2372 22.0548H11.1845C11.1707 22.1827 11.1308 22.2719 10.9818 22.2703H10.6803V21.6077H11.0309C11.2852 21.6056 11.3273 21.7374 11.3384 21.8914L11.3911 21.8771C11.3868 21.808 11.3839 21.7192 11.3839 21.6375C11.3839 21.5956 11.385 21.5559 11.3864 21.5212C11.2203 21.522 10.9724 21.5309 10.7713 21.5309C10.5704 21.5309 10.3231 21.522 10.1734 21.5212V21.5733H10.1971C10.2841 21.5735 10.3882 21.5886 10.3887 21.724V23.0064C10.3882 23.1415 10.2841 23.1564 10.1971 23.1571H10.1734V23.2088C10.3158 23.2083 10.5984 23.1992 10.8133 23.1992C11.0291 23.1992 11.3042 23.2083 11.4618 23.2088Z" fill="#1A1919"/>
<path fill-rule="evenodd" clip-rule="evenodd" d="M11.885 21.77C11.885 21.5915 11.787 21.5842 11.7111 21.5842H11.667V21.5107C11.7453 21.5107 11.8969 21.5204 12.0462 21.5204C12.1926 21.5204 12.3101 21.5107 12.4397 21.5107C12.7474 21.5107 13.0218 21.5938 13.0218 21.9417C13.0218 22.1618 12.875 22.2963 12.6819 22.3726L13.0998 22.9989C13.1685 23.1025 13.217 23.1315 13.3371 23.1459V23.2195C13.2562 23.2195 13.178 23.21 13.0976 23.21C13.0218 23.21 12.9432 23.2195 12.8678 23.2195C12.6793 22.9723 12.5178 22.7081 12.359 22.4261H12.1979V22.9503C12.1979 23.1388 12.2857 23.1459 12.3978 23.1459H12.4421V23.2195C12.3025 23.2195 12.1612 23.21 12.0216 23.21C11.9042 23.21 11.7893 23.2195 11.667 23.2195V23.1459H11.7111C11.8019 23.1459 11.885 23.1045 11.885 23.014V21.77ZM12.1979 22.3377H12.3174C12.5622 22.3377 12.694 22.2449 12.694 21.9559C12.694 21.7382 12.5546 21.5987 12.3367 21.5987C12.2633 21.5987 12.232 21.6062 12.1979 21.6086V22.3377Z" fill="#1A1919"/>
<path fill-rule="evenodd" clip-rule="evenodd" d="M13.3365 23.23C13.2545 23.23 13.1768 23.2202 13.0963 23.2202C13.0218 23.2202 12.9436 23.23 12.8585 23.2259C12.6709 22.9794 12.5101 22.7166 12.3522 22.4372H12.2077V22.9499C12.2104 23.1342 12.2842 23.1328 12.3972 23.1354H12.4521V23.23H12.4413C12.3015 23.23 12.1594 23.2202 12.0209 23.2202C11.9041 23.2202 11.7892 23.23 11.6664 23.23H11.6558V23.1354H11.7106C11.7985 23.1347 11.8728 23.0964 11.8732 23.0141V21.77C11.8713 21.5964 11.7864 21.5973 11.7106 21.5949H11.6558V21.5001H11.6664C11.7455 21.5001 11.8965 21.5096 12.0456 21.5096C12.1915 21.5096 12.3088 21.5001 12.4391 21.5001C12.7474 21.5007 13.0311 21.5857 13.0318 21.9413C13.0318 22.1622 12.886 22.3003 12.6974 22.3773L13.108 22.9931C13.1764 23.0947 13.219 23.1201 13.3379 23.1354L13.3468 23.1368V23.23H13.3365ZM12.1974 22.4155H12.3645L12.3675 22.421C12.5267 22.7022 12.6874 22.9666 12.8674 23.209C12.9418 23.209 13.0204 23.1992 13.0966 23.1992C13.1746 23.1992 13.2501 23.2077 13.326 23.2088V23.1551C13.2114 23.1411 13.1575 23.1064 13.0908 23.0049L12.6652 22.3677L12.6772 22.3628C12.8687 22.2873 13.0106 22.1565 13.0107 21.9413C13.0106 21.6017 12.7467 21.5229 12.4393 21.5212C12.3106 21.5212 12.1931 21.5311 12.0458 21.5311C11.9022 21.5311 11.757 21.522 11.6771 21.5212V21.5733H11.7108C11.7867 21.5735 11.8947 21.5861 11.8947 21.7699V23.014C11.8947 23.1122 11.8028 23.1569 11.7108 23.1571H11.6771V23.2088C11.7946 23.2083 11.9062 23.1992 12.0211 23.1992C12.1576 23.1992 12.2957 23.2083 12.4309 23.2088V23.1571H12.3974C12.2861 23.1569 12.1866 23.1431 12.1866 22.9498V22.4155H12.1974ZM12.1972 22.3484H12.1864V21.5989L12.1957 21.5981C12.2292 21.5954 12.2622 21.5887 12.3361 21.5887C12.5588 21.5887 12.7038 21.7335 12.704 21.9567C12.7034 22.249 12.5634 22.3483 12.3168 22.3484H12.1972ZM12.3174 22.3276C12.5594 22.3252 12.6814 22.2412 12.6838 21.9568C12.6823 21.7429 12.5497 21.6102 12.3367 21.6093C12.2708 21.6093 12.2396 21.6154 12.2084 21.6185V22.3276H12.3174Z" fill="#1A1919"/>
<path fill-rule="evenodd" clip-rule="evenodd" d="M14.9971 22.737L15.0013 22.7322V21.8144C15.0013 21.6135 14.8624 21.5842 14.789 21.5842H14.7354V21.5107C14.8504 21.5107 14.9625 21.5204 15.0777 21.5204C15.1782 21.5204 15.2777 21.5107 15.3787 21.5107V21.5842H15.3418C15.2391 21.5842 15.1242 21.6037 15.1242 21.895V23.0089C15.1242 23.0947 15.1266 23.1803 15.1387 23.2563H15.0461L13.787 21.8508V22.8597C13.787 23.0728 13.8283 23.1459 14.0166 23.1459H14.0582V23.2195C13.9532 23.2195 13.8478 23.2099 13.7428 23.2099C13.6324 23.2099 13.5201 23.2195 13.4102 23.2195V23.1459H13.4441C13.6129 23.1459 13.6646 23.0308 13.6646 22.8356V21.8041C13.6646 21.6672 13.5519 21.5842 13.442 21.5842H13.4102V21.5107C13.5027 21.5107 13.5988 21.5204 13.6915 21.5204C13.7642 21.5204 13.8354 21.5107 13.9089 21.5107L14.9971 22.737Z" fill="#1A1919"/>
<path fill-rule="evenodd" clip-rule="evenodd" d="M15.1379 23.2666L15.0375 23.2632L13.7964 21.8787V22.8596C13.7993 23.0728 13.8315 23.1331 14.0159 23.1354H14.0677V23.23H14.057C13.9513 23.23 13.8464 23.2198 13.7416 23.2198C13.6325 23.2198 13.5195 23.23 13.4094 23.23H13.3984V23.1354H13.4434C13.6049 23.1347 13.6512 23.0305 13.6528 22.835V21.8042C13.6525 21.6737 13.5459 21.5949 13.4413 21.5949H13.3984V21.5001H13.4094C13.5027 21.5001 13.5984 21.5096 13.6907 21.5096C13.7625 21.5096 13.8333 21.5001 13.9153 21.5032L14.9903 22.7149V21.8145C14.9896 21.6201 14.8594 21.596 14.7883 21.5949H14.7238V21.5001H14.7344C14.8499 21.5001 14.9627 21.5096 15.077 21.5096C15.1766 21.5096 15.2767 21.5001 15.3775 21.5001H15.3883V21.5949H15.3411C15.2402 21.5973 15.1363 21.6063 15.1339 21.8951V23.0089C15.1339 23.0946 15.136 23.1795 15.1485 23.2545L15.1497 23.2666H15.1379ZM15.0452 23.2452H15.1254C15.1147 23.172 15.1125 23.0903 15.1125 23.0088V21.895C15.1127 21.6012 15.2364 21.574 15.341 21.5733H15.3668V21.5212C15.2705 21.522 15.1739 21.5309 15.0769 21.5309C14.9645 21.5309 14.8556 21.522 14.745 21.5212V21.5733H14.7882C14.8636 21.574 15.0116 21.6069 15.0116 21.8144L15.0081 22.7398L15.0037 22.7446L14.996 22.7526L13.9081 21.5212C13.8354 21.5212 13.7645 21.5309 13.6906 21.5309C13.5999 21.5309 13.5086 21.522 13.4197 21.5212V21.5733H13.4412C13.5563 21.574 13.6739 21.6608 13.6739 21.8041V22.8349C13.6739 23.0314 13.6186 23.1564 13.4433 23.1571L13.4197 23.1569V23.2089C13.5253 23.2082 13.6343 23.1992 13.7415 23.1992C13.8441 23.1992 13.9457 23.2082 14.0468 23.2089V23.1571H14.0158C13.8234 23.1569 13.7754 23.0728 13.7749 22.8596V21.8238L15.0452 23.2452ZM14.9959 22.7369L15.0038 22.7299L14.9959 22.7369ZM14.9906 22.7322V22.7316L14.9889 22.7297L14.9906 22.7322Z" fill="#1A1919"/>
<path fill-rule="evenodd" clip-rule="evenodd" d="M15.7718 22.8696C15.7472 22.9525 15.7176 23.0168 15.7176 23.0603C15.7176 23.1339 15.8207 23.1461 15.9011 23.1461H15.9284V23.2195C15.8302 23.2143 15.7304 23.2101 15.632 23.2101C15.544 23.2101 15.4565 23.2143 15.3682 23.2195V23.1461H15.3831C15.4782 23.1461 15.5592 23.0896 15.5955 22.9868L15.9867 21.8635C16.0186 21.7727 16.0627 21.6504 16.0776 21.5596C16.1553 21.5328 16.2535 21.4842 16.2998 21.4544C16.3074 21.4519 16.3119 21.4494 16.3193 21.4494C16.3267 21.4494 16.3313 21.4494 16.3366 21.4571C16.3439 21.4765 16.351 21.4985 16.3586 21.5181L16.8087 22.7986C16.838 22.884 16.8671 22.9745 16.8983 23.0484C16.9281 23.1171 16.9795 23.1461 17.0605 23.1461H17.0751V23.2195C16.965 23.2143 16.8547 23.2101 16.7378 23.2101C16.618 23.2101 16.4954 23.2143 16.3707 23.2195V23.1461H16.3976C16.4535 23.1461 16.5495 23.1363 16.5495 23.0751C16.5495 23.0435 16.5274 22.9773 16.5001 22.8986L16.4048 22.6148H15.8499L15.7718 22.8696ZM16.1285 21.7849H16.1234L15.8962 22.4777H16.3531L16.1285 21.7849Z" fill="#1A1919"/>
<path fill-rule="evenodd" clip-rule="evenodd" d="M17.0737 23.2299C16.9638 23.2252 16.8536 23.2197 16.7372 23.2197C16.6173 23.2197 16.4953 23.2252 16.3706 23.2299L16.3593 23.2305V23.1348H16.3969C16.4536 23.1348 16.5376 23.1221 16.5378 23.075C16.5384 23.0471 16.5164 22.98 16.4895 22.9022L16.3964 22.6252H15.8571L15.781 22.8726C15.7564 22.9558 15.7267 23.0205 15.7271 23.0603C15.728 23.1201 15.8192 23.1348 15.9004 23.1348H15.938V23.2305L15.9269 23.2299C15.8291 23.2252 15.7294 23.2197 15.6315 23.2197C15.5443 23.2197 15.4559 23.2252 15.3683 23.2299L15.3569 23.2305V23.1348H15.3823C15.4732 23.1347 15.5491 23.0827 15.5844 22.9832L15.976 21.8596C16.0076 21.769 16.052 21.6472 16.0731 21.5494C16.1498 21.5233 16.2482 21.4739 16.2951 21.4444C16.302 21.442 16.3087 21.4388 16.3186 21.4388C16.3246 21.4385 16.3377 21.44 16.3457 21.4528C16.3526 21.4729 16.3604 21.4949 16.3678 21.5146L16.818 22.7949C16.8468 22.8807 16.876 22.9711 16.908 23.0437C16.9363 23.1089 16.9812 23.1347 17.0598 23.1348H17.0845V23.2305L17.0737 23.2299ZM16.3806 23.2082C16.5016 23.204 16.6203 23.1993 16.7371 23.1993C16.8505 23.1993 16.9571 23.204 17.0634 23.2082V23.157H17.0598C16.9759 23.1576 16.9183 23.1246 16.8883 23.0524C16.8564 22.9784 16.8267 22.8875 16.7978 22.8018L16.3477 21.5214C16.3403 21.5019 16.3333 21.48 16.3269 21.4626C16.3245 21.4602 16.3251 21.4602 16.3231 21.4602H16.3185C16.3136 21.4602 16.3106 21.4616 16.3044 21.4632C16.2573 21.4938 16.1593 21.5421 16.0866 21.5612C16.0717 21.6539 16.0276 21.7762 15.9959 21.8669L15.6047 22.9903C15.5674 23.0967 15.4815 23.1572 15.3823 23.157H15.3782V23.2082C15.462 23.204 15.5466 23.1993 15.6315 23.1993C15.7261 23.1993 15.8225 23.204 15.9161 23.2082V23.157H15.9004C15.8205 23.1559 15.7092 23.1472 15.7065 23.0604C15.7066 23.0119 15.7366 22.9492 15.7606 22.8665L15.771 22.8696L15.7606 22.8662L15.8411 22.6046H16.4113L16.5092 22.8953C16.5367 22.9741 16.5589 23.0393 16.5589 23.0751C16.5553 23.15 16.4523 23.1556 16.3969 23.157H16.3806V23.2082ZM15.8807 22.4884L16.1148 21.7741H16.1279V21.785L16.1253 21.7857L16.1279 21.785V21.7741H16.1352L16.3676 22.4884H15.8807ZM15.9097 22.467H16.3378L16.125 21.811L15.9097 22.467ZM16.1175 21.7881L16.1231 21.7864L16.1175 21.7881Z" fill="#1A1919"/>
<path fill-rule="evenodd" clip-rule="evenodd" d="M17.1819 21.6331C16.9986 21.6331 16.9912 21.6773 16.9543 21.8558H16.8809C16.8905 21.7872 16.903 21.7188 16.9106 21.6478C16.9201 21.5789 16.9248 21.5106 16.9248 21.4398H16.984C17.0031 21.5133 17.0644 21.5106 17.1304 21.5106H18.3922C18.458 21.5106 18.519 21.5082 18.5239 21.4348L18.5823 21.4448C18.5733 21.5106 18.5636 21.5768 18.5559 21.6431C18.5505 21.7091 18.5505 21.775 18.5505 21.8411L18.4775 21.8683C18.4731 21.7779 18.4608 21.6331 18.2966 21.6331H17.8957V22.9354C17.8957 23.1243 17.9814 23.1459 18.0986 23.1459H18.1453V23.2194C18.0498 23.2194 17.8789 23.21 17.7466 23.21C17.6002 23.21 17.4286 23.2194 17.3333 23.2194V23.1459H17.3798C17.5146 23.1459 17.5828 23.1338 17.5828 22.9405V21.6331H17.1819Z" fill="#1A1919"/>
<path fill-rule="evenodd" clip-rule="evenodd" d="M18.1454 23.2299C18.0493 23.2299 17.8779 23.2202 17.7465 23.2202C17.6005 23.2202 17.4292 23.2299 17.3335 23.2299H17.3226V23.1353H17.3799C17.5148 23.1322 17.5688 23.1304 17.5721 22.9406L17.5719 21.6435H17.182V21.6221H17.5934V22.9406C17.5934 23.1371 17.5142 23.1565 17.3799 23.1569H17.3439V23.209C17.4405 23.2082 17.6048 23.1992 17.7465 23.1992C17.8743 23.1992 18.038 23.2082 18.1345 23.209V23.1569H18.0986C17.9808 23.1565 17.8855 23.1281 17.8853 22.9355V21.6221H18.2967C18.461 21.6228 18.4824 21.7623 18.4871 21.8534L18.5402 21.8339C18.5402 21.7699 18.5406 21.7059 18.5456 21.6419C18.5522 21.5788 18.5614 21.5161 18.5703 21.4537L18.5334 21.4472C18.5222 21.5185 18.4532 21.5224 18.3923 21.5213H17.118C17.0603 21.522 16.9979 21.5186 16.9757 21.4502H16.9358C16.9352 21.5179 16.9304 21.5837 16.9208 21.6489C16.9141 21.7165 16.9023 21.7812 16.893 21.8456H16.9456C16.9777 21.6749 16.9989 21.6195 17.182 21.6221V21.6435C17.0007 21.6467 17.0047 21.6775 16.9648 21.8583L16.9631 21.8667H16.8687L16.8701 21.8545C16.8804 21.7857 16.8924 21.7169 16.8996 21.6464C16.9096 21.5779 16.9141 21.51 16.9141 21.4399V21.429H16.9917L16.9938 21.4367C17.0109 21.4984 17.0554 21.4989 17.118 21.5H18.3923C18.46 21.4989 18.5093 21.498 18.5137 21.4341L18.5141 21.4224L18.5254 21.4246L18.5949 21.4355L18.5932 21.4464C18.5831 21.5121 18.5738 21.5779 18.5664 21.6435C18.5614 21.7092 18.5614 21.775 18.5614 21.8411V21.8485L18.5543 21.8514L18.4678 21.8831L18.4674 21.8689C18.461 21.7768 18.4513 21.6435 18.2967 21.6435H17.9064V22.9355C17.9089 23.12 17.9821 23.133 18.0986 23.1353H18.1556V23.2299H18.1454Z" fill="#1A1919"/>
<path fill-rule="evenodd" clip-rule="evenodd" d="M18.6729 23.1459H18.7071C18.7952 23.1459 18.8878 23.1339 18.8878 23.0064V21.724C18.8878 21.5964 18.7952 21.5843 18.7071 21.5843H18.6729V21.5107C18.7683 21.5107 18.9147 21.5204 19.0344 21.5204C19.1569 21.5204 19.3037 21.5107 19.4188 21.5107V21.5843H19.3845C19.2961 21.5843 19.2032 21.5964 19.2032 21.724V23.0064C19.2032 23.1339 19.2961 23.1459 19.3845 23.1459H19.4188V23.2195C19.3014 23.2195 19.1545 23.21 19.0324 23.21C18.9124 23.21 18.7683 23.2195 18.6729 23.2195V23.1459Z" fill="#1A1919"/>
<path fill-rule="evenodd" clip-rule="evenodd" d="M19.4185 23.23C19.3004 23.23 19.1541 23.2198 19.0321 23.2198C18.9125 23.2198 18.7681 23.23 18.6726 23.23H18.6621V23.1354H18.7069C18.795 23.1339 18.8763 23.1261 18.8768 23.0065V21.724C18.8763 21.6044 18.795 21.5964 18.7069 21.5949H18.6621V21.5001H18.6726C18.7681 21.5001 18.9151 21.5096 19.0341 21.5096C19.156 21.5096 19.3027 21.5001 19.4185 21.5001H19.4287V21.5949H19.3843C19.2948 21.5964 19.2144 21.6044 19.2135 21.724V23.0065C19.2144 23.1261 19.2948 23.1339 19.3843 23.1354H19.4287V23.23H19.4185ZM19.4075 23.2088V23.1569H19.3843C19.2966 23.1569 19.1928 23.1415 19.1928 23.0064V21.724C19.1928 21.5886 19.2966 21.5735 19.3843 21.5733H19.4075V21.5212C19.2947 21.522 19.1531 21.5309 19.0341 21.5309C18.918 21.5309 18.7781 21.522 18.6832 21.5212V21.5733H18.7069C18.7937 21.5735 18.898 21.5886 18.8982 21.724V23.0064C18.898 23.1415 18.7937 23.1569 18.7069 23.1569H18.6832V23.2088C18.7775 23.2077 18.9157 23.1992 19.0322 23.1992C19.1507 23.1992 19.2921 23.2082 19.4075 23.2088Z" fill="#1A1919"/>
<path fill-rule="evenodd" clip-rule="evenodd" d="M20.3941 21.4742C20.9154 21.4742 21.3308 21.7977 21.3308 22.3191C21.3308 22.8822 20.9273 23.2565 20.4067 23.2565C19.8881 23.2565 19.4922 22.9039 19.4922 22.3775C19.4922 21.8686 19.8857 21.4742 20.3941 21.4742ZM20.4307 23.1487C20.9052 23.1487 20.988 22.7297 20.988 22.3728C20.988 22.015 20.7953 21.5819 20.3891 21.5819C19.9614 21.5819 19.8341 21.9639 19.8341 22.2916C19.8341 22.7297 20.0348 23.1487 20.4307 23.1487Z" fill="#1A1919"/>
<path fill-rule="evenodd" clip-rule="evenodd" d="M19.4805 22.3773C19.4815 21.8625 19.8796 21.4642 20.3932 21.4634V21.4848C19.8906 21.4848 19.5018 21.8738 19.5012 22.3773C19.5022 22.8978 19.8924 23.2451 20.406 23.2453C20.9213 23.2451 21.319 22.8762 21.3197 22.3186C21.3192 21.8036 20.9103 21.4852 20.3932 21.4848V21.4634C20.9182 21.4639 21.3396 21.7906 21.3405 22.3186C21.3399 22.8875 20.9316 23.2657 20.406 23.2666C19.883 23.2657 19.4815 22.9096 19.4805 22.3773ZM19.8228 22.2915C19.8236 21.9621 19.952 21.5709 20.3885 21.5709C20.8037 21.5718 20.9973 22.0129 20.9982 22.3727C20.9973 22.7296 20.9135 23.1585 20.4303 23.1585V23.1378C20.8952 23.1374 20.976 22.7296 20.9767 22.3727C20.9767 22.018 20.7859 21.5931 20.3885 21.5924C19.9691 21.5929 19.8451 21.9654 19.844 22.2915C19.8442 22.7276 20.043 23.1371 20.4303 23.1378V23.1585C20.0244 23.1582 19.8236 22.7322 19.8228 22.2915Z" fill="#1A1919"/>
<path fill-rule="evenodd" clip-rule="evenodd" d="M22.9785 22.737L22.9836 22.7322V21.8144C22.9836 21.6135 22.8438 21.5842 22.7704 21.5842H22.7172V21.5107C22.8318 21.5107 22.9445 21.5204 23.0591 21.5204C23.1596 21.5204 23.2599 21.5107 23.3602 21.5107V21.5842H23.3235C23.221 21.5842 23.1056 21.6037 23.1056 21.895V23.0089C23.1056 23.0947 23.1082 23.1803 23.1206 23.2563H23.0276L21.7681 21.8508V22.8597C21.7681 23.0728 21.8098 23.1459 21.9977 23.1459H22.0397V23.2195C21.9344 23.2195 21.8295 23.2099 21.7243 23.2099C21.6142 23.2099 21.5016 23.2195 21.3916 23.2195V23.1459H21.4259C21.5949 23.1459 21.6459 23.0308 21.6459 22.8356V21.8041C21.6459 21.6672 21.5339 21.5842 21.4233 21.5842H21.3916V21.5107C21.4845 21.5107 21.5798 21.5204 21.6729 21.5204C21.7461 21.5204 21.8166 21.5107 21.8903 21.5107L22.9785 22.737Z" fill="#1A1919"/>
<path fill-rule="evenodd" clip-rule="evenodd" d="M23.1207 23.2666L23.0195 23.2632L21.7787 21.8787V22.8597C21.7815 23.0728 21.8138 23.1328 21.9975 23.1349H22.0501V23.23H22.0398C21.9339 23.23 21.8289 23.2202 21.7243 23.2202C21.6148 23.2202 21.5022 23.23 21.3913 23.23H21.3813V23.1349H21.4259C21.587 23.1344 21.6335 23.0305 21.6354 22.8355V21.8042C21.6353 21.6737 21.5284 21.5949 21.4234 21.5949H21.3813V21.5001H21.3913C21.4851 21.5001 21.5804 21.5096 21.6728 21.5096C21.7454 21.5096 21.8156 21.5001 21.8985 21.5039L22.9729 22.7149V21.8145C22.9721 21.6201 22.8418 21.5964 22.7705 21.5949H22.7061V21.5001H22.7173C22.8321 21.5001 22.9449 21.5096 23.0589 21.5096C23.1589 21.5096 23.2587 21.5001 23.3603 21.5001H23.3706V21.5949H23.3234C23.2226 21.5974 23.1186 21.6067 23.1165 21.8951V23.0089C23.1165 23.0946 23.1185 23.18 23.1303 23.2545L23.1324 23.2666H23.1207ZM23.0274 23.2452H23.1076C23.0972 23.1715 23.0948 23.0903 23.0948 23.0088V21.895C23.0948 21.6007 23.2183 21.574 23.3232 21.5733H23.3497V21.5212C23.2526 21.522 23.1565 21.5309 23.0587 21.5309C22.9474 21.5309 22.8381 21.522 22.7274 21.5212V21.5733H22.7703C22.8459 21.574 22.9935 21.6074 22.9935 21.8144L22.9909 22.7398L22.9862 22.7446L22.9784 22.7526L21.8902 21.5212C21.8179 21.5212 21.7467 21.5309 21.6727 21.5309C21.5825 21.5309 21.4907 21.522 21.4018 21.5212V21.5733H21.4232C21.5382 21.574 21.6563 21.6608 21.6563 21.8041V22.8355C21.6563 23.0314 21.6017 23.1564 21.4257 23.1571L21.4018 23.1569V23.2089C21.5079 23.2082 21.6168 23.1992 21.7242 23.1992C21.8262 23.1992 21.9275 23.2082 22.0289 23.2089V23.1571H21.9973C21.8055 23.1569 21.7573 23.0728 21.7573 22.8596V21.8234L23.0274 23.2452ZM22.9787 22.7369L22.9864 22.7299L22.9787 22.7369ZM22.9723 22.7322V22.7316L22.9704 22.7297L22.9723 22.7322Z" fill="#1A1919"/>
<path fill-rule="evenodd" clip-rule="evenodd" d="M23.7524 22.8696C23.7284 22.9525 23.6989 23.0168 23.6989 23.0603C23.6989 23.1339 23.8019 23.1461 23.8821 23.1461H23.9094V23.2195C23.8114 23.2143 23.7111 23.2101 23.6132 23.2101C23.5252 23.2101 23.4373 23.2143 23.3496 23.2195V23.1461H23.3635C23.4594 23.1461 23.5404 23.0896 23.5761 22.9868L23.9681 21.8635C23.9997 21.7727 24.0439 21.6504 24.058 21.5596C24.1366 21.5328 24.2341 21.4842 24.2812 21.4544C24.2881 21.4519 24.293 21.4494 24.3006 21.4494C24.3077 21.4494 24.3123 21.4494 24.3173 21.4571C24.3247 21.4765 24.3321 21.4985 24.3395 21.5181L24.7894 22.7986C24.8185 22.884 24.848 22.9745 24.88 23.0484C24.9093 23.1171 24.9606 23.1461 25.0412 23.1461H25.0563V23.2195C24.9461 23.2143 24.8359 23.2101 24.7185 23.2101C24.5989 23.2101 24.4764 23.2143 24.3516 23.2195V23.1461H24.3787C24.4346 23.1461 24.5305 23.1363 24.5305 23.0751C24.5305 23.0435 24.5086 22.9773 24.4813 22.8986L24.3859 22.6148H23.831L23.7524 22.8696ZM24.1098 21.7849H24.1049L23.877 22.4777H24.3349L24.1098 21.7849Z" fill="#1A1919"/>
<path fill-rule="evenodd" clip-rule="evenodd" d="M25.0551 23.2301C24.9448 23.2258 24.8351 23.2203 24.7185 23.2203C24.5992 23.2203 24.4766 23.2258 24.352 23.2301L24.3412 23.2307V23.1355H24.3784C24.4352 23.1355 24.5195 23.1224 24.5196 23.0752C24.5202 23.0473 24.4981 22.9805 24.4706 22.9024L24.3779 22.6254H23.8381L23.7626 22.8728C23.738 22.9567 23.7091 23.0207 23.7094 23.0604C23.7094 23.1203 23.8011 23.1355 23.8819 23.1355H23.9193V23.2307L23.9083 23.2301C23.8106 23.2258 23.7105 23.2203 23.6131 23.2203C23.5255 23.2203 23.4377 23.2258 23.3495 23.2301L23.3389 23.2307V23.1355H23.3634C23.4546 23.1351 23.5308 23.0828 23.5666 22.9835L23.9577 21.8598C23.989 21.7692 24.0332 21.6475 24.0547 21.55C24.1315 21.5233 24.2297 21.4742 24.2773 21.4446C24.2836 21.4422 24.2904 21.4392 24.3004 21.4392C24.3067 21.4387 24.3196 21.4403 24.3271 21.4536C24.3345 21.4729 24.3417 21.4951 24.3496 21.5149L24.7993 22.7952C24.8287 22.8809 24.8578 22.9713 24.8896 23.0443C24.9184 23.1091 24.9626 23.1349 25.0408 23.1355H25.0661V23.2307L25.0551 23.2301ZM24.3623 23.2086C24.4833 23.2042 24.6022 23.1994 24.7189 23.1994C24.8325 23.1994 24.9389 23.2042 25.0456 23.2084L25.0453 23.1572H25.0412C24.9584 23.1574 24.9007 23.1248 24.8702 23.0526C24.838 22.9786 24.8089 22.8877 24.7796 22.8023L24.3297 21.5216C24.3225 21.502 24.3147 21.4802 24.3089 21.4632C24.3069 21.4603 24.3071 21.4603 24.3056 21.4603H24.3008C24.2955 21.4603 24.2928 21.462 24.287 21.4637C24.2392 21.4936 24.1413 21.5427 24.0691 21.5613C24.054 21.6541 24.0095 21.7762 23.9781 21.8671L23.5865 22.9905C23.5493 23.0969 23.4638 23.1574 23.3638 23.1572H23.3602V23.2084C23.4444 23.2042 23.5284 23.1994 23.6135 23.1994C23.7082 23.1994 23.8049 23.2042 23.8988 23.2084V23.1572H23.8823C23.8028 23.1561 23.6913 23.1476 23.6882 23.0604C23.6888 23.0121 23.7189 22.9496 23.7429 22.8667L23.7527 22.8697L23.7429 22.8664L23.8233 22.6048H24.3933L24.4915 22.8955C24.5184 22.9743 24.5407 23.0395 24.5407 23.0753C24.5372 23.1502 24.4343 23.1558 24.3788 23.1572H24.3623V23.2086ZM23.863 22.4885L24.0978 21.7743H24.1105V21.7852L24.1077 21.7859L24.1105 21.7852V21.7743H24.1179L24.3491 22.4885H23.863ZM23.8922 22.4671H24.32L24.1073 21.8115L23.8922 22.4671ZM24.1 21.7883L24.1048 21.7866L24.1 21.7883Z" fill="#1A1919"/>
<path fill-rule="evenodd" clip-rule="evenodd" d="M25.6729 22.9794C25.6729 23.0778 25.7408 23.1068 25.8193 23.117C25.9193 23.1243 26.0295 23.1243 26.1423 23.1118C26.2449 23.0995 26.3329 23.0411 26.3767 22.9794C26.4156 22.9256 26.4376 22.8571 26.4526 22.8033H26.5233C26.4964 22.9429 26.4623 23.0801 26.4329 23.2195C26.2182 23.2195 26.0024 23.21 25.7876 23.21C25.5722 23.21 25.3572 23.2195 25.1421 23.2195V23.1459H25.176C25.2642 23.1459 25.3599 23.1339 25.3599 22.9821V21.724C25.3599 21.5964 25.2642 21.5842 25.176 21.5842H25.1421V21.5107C25.2715 21.5107 25.3988 21.5204 25.5282 21.5204C25.6532 21.5204 25.7751 21.5107 25.9002 21.5107V21.5842H25.8387C25.7458 21.5842 25.6729 21.5868 25.6729 21.7165V22.9794Z" fill="#1A1919"/>
<path fill-rule="evenodd" clip-rule="evenodd" d="M26.432 23.23C26.2164 23.23 26.001 23.2202 25.7866 23.2202C25.5715 23.2202 25.3563 23.23 25.1406 23.23H25.1304V23.1354H25.175C25.2634 23.1332 25.3473 23.127 25.3483 22.9821V21.7236C25.3473 21.6044 25.2637 21.5964 25.175 21.5949H25.1304V21.5001H25.1406C25.2709 21.5001 25.3981 21.5096 25.5271 21.5096C25.6515 21.5096 25.7733 21.5001 25.8992 21.5001H25.909V21.5949H25.8378C25.7429 21.5973 25.684 21.593 25.6819 21.7165V22.9794C25.6825 23.071 25.7424 23.0954 25.8189 23.1064C25.8619 23.1093 25.9074 23.1109 25.9545 23.1109C26.0142 23.1109 26.0764 23.1081 26.1396 23.1015C26.2392 23.0896 26.3249 23.032 26.3672 22.9736C26.4049 22.9212 26.4262 22.8541 26.441 22.8009L26.443 22.7928H26.5352L26.5331 22.8057C26.5054 22.9456 26.4717 23.0822 26.4421 23.2217L26.4402 23.23H26.432ZM26.423 23.2088C26.4513 23.0758 26.4833 22.9458 26.5097 22.8138H26.4593C26.4443 22.8671 26.4224 22.9328 26.3841 22.986C26.3384 23.0494 26.2479 23.1093 26.1418 23.1224C26.0779 23.1289 26.0143 23.1323 25.9544 23.1323C25.907 23.1323 25.8613 23.1301 25.8168 23.127C25.7373 23.1183 25.6604 23.0841 25.6605 22.9794V21.7165C25.6605 21.5803 25.7464 21.5733 25.8377 21.5733H25.888V21.5212C25.7676 21.522 25.6487 21.5311 25.527 21.5311C25.4007 21.5311 25.2767 21.522 25.1516 21.5212V21.5733H25.1749C25.2621 21.5733 25.3688 21.5886 25.3688 21.7235V22.9821C25.3688 23.1405 25.2626 23.1569 25.1749 23.1569H25.1516V23.2088C25.3628 23.2083 25.5742 23.1992 25.7865 23.1992C25.9991 23.1992 26.2113 23.2083 26.423 23.2088Z" fill="#1A1919"/>
<path fill-rule="evenodd" clip-rule="evenodd" d="M11.2217 12.8684C11.2217 10.5786 13.0757 8.72241 15.3627 8.72241C17.6497 8.72241 19.5038 10.5786 19.5038 12.8684C19.5038 15.1582 17.6497 17.0145 15.3627 17.0145C13.0757 17.0145 11.2217 15.1582 11.2217 12.8684Z" fill="#FFFFFE"/>
<path fill-rule="evenodd" clip-rule="evenodd" d="M17.8666 12.7868C17.8649 11.725 17.2021 10.8195 16.268 10.4609V15.1124C17.2021 14.7534 17.8649 13.8487 17.8666 12.7868ZM14.486 15.1115V10.4614C13.5528 10.8211 12.8909 11.7253 12.8884 12.7867C12.8909 13.8479 13.5528 14.752 14.486 15.1115ZM15.3776 8.85516C13.209 8.85599 11.4519 10.6155 11.4516 12.7867C11.4519 14.9577 13.209 16.7169 15.3776 16.7173C17.5463 16.7169 19.3037 14.9577 19.3043 12.7867C19.3037 10.6155 17.5463 8.85599 15.3776 8.85516ZM15.3679 17.0884C12.9947 17.0997 11.0415 15.1748 11.0415 12.8316C11.0415 10.2708 12.9947 8.49954 15.3679 8.5H16.48C18.8251 8.49954 20.9654 10.27 20.9654 12.8316C20.9654 15.1739 18.8251 17.0884 16.48 17.0884H15.3679Z" fill="#0069AA"/>
<path fill-rule="evenodd" clip-rule="evenodd" d="M5.51025 23.1459H5.54459C5.63252 23.1459 5.72544 23.1339 5.72544 23.0064V21.724C5.72544 21.5964 5.63252 21.5843 5.54459 21.5843H5.51025V21.5107C5.60558 21.5107 5.75228 21.5204 5.87241 21.5204C5.99458 21.5204 6.14109 21.5107 6.25604 21.5107V21.5843H6.22152C6.13397 21.5843 6.04086 21.5964 6.04086 21.724V23.0064C6.04086 23.1339 6.13397 23.1459 6.22152 23.1459H6.25604V23.2195C6.13878 23.2195 5.99171 23.21 5.86991 23.21C5.74987 23.21 5.60558 23.2195 5.51025 23.2195V23.1459Z" fill="#1A1919"/>
<path fill-rule="evenodd" clip-rule="evenodd" d="M6.25643 23.23C6.13815 23.23 5.99182 23.2202 5.87012 23.2202C5.75045 23.2202 5.60662 23.23 5.51064 23.23H5.5V23.1354H5.5448C5.63355 23.1332 5.71426 23.1261 5.715 23.0065V21.724C5.71426 21.6042 5.63355 21.5964 5.5448 21.5949H5.5V21.5001H5.51064C5.60662 21.5001 5.75322 21.5096 5.8728 21.5096C5.99442 21.5096 6.14083 21.5001 6.25643 21.5001H6.26735V21.5949H6.22237C6.13352 21.5964 6.05235 21.6042 6.05189 21.724V23.0065C6.05235 23.1261 6.13352 23.1332 6.22237 23.1354H6.26735V23.23H6.25643ZM6.24575 23.209L6.24585 23.1569H6.22225C6.13478 23.1569 6.03085 23.1415 6.03029 23.0064V21.724C6.03085 21.5886 6.13478 21.5735 6.22225 21.5735H6.24575V21.5212C6.13293 21.5213 5.99123 21.5311 5.87267 21.5311C5.75652 21.5311 5.61593 21.522 5.52125 21.5212V21.5735H5.54467C5.63185 21.5735 5.73597 21.5886 5.73597 21.724V23.0064C5.73597 23.1415 5.63185 23.1569 5.54467 23.1569H5.52125V23.209C5.61593 23.2082 5.75402 23.1992 5.86999 23.1992C5.98911 23.1992 6.13043 23.2083 6.24575 23.209Z" fill="#1A1919"/>
<path fill-rule="evenodd" clip-rule="evenodd" d="M26.4927 21.4414C26.6403 21.4414 26.7503 21.5548 26.7503 21.6998C26.7503 21.8446 26.6403 21.9568 26.4927 21.9568C26.3456 21.9568 26.2354 21.8446 26.2354 21.6998C26.2354 21.5548 26.3456 21.4414 26.4927 21.4414ZM26.4924 21.9089C26.6079 21.9089 26.6961 21.8106 26.6961 21.6997C26.6961 21.5887 26.609 21.4897 26.4924 21.4897C26.3766 21.4897 26.2885 21.5887 26.2885 21.6997C26.2885 21.8106 26.3766 21.9089 26.4924 21.9089ZM26.3645 21.8357V21.8232C26.3959 21.8187 26.4018 21.8195 26.4018 21.8002V21.6092C26.4018 21.5823 26.3992 21.573 26.3655 21.5745V21.5614H26.4973C26.5425 21.5614 26.5843 21.583 26.5843 21.6299C26.5843 21.6682 26.5591 21.6966 26.5234 21.7077L26.5658 21.7668C26.5855 21.7935 26.608 21.8187 26.6224 21.8276V21.8357H26.5723C26.5483 21.8357 26.527 21.7851 26.4798 21.7172H26.4513V21.8026C26.4513 21.8195 26.4572 21.8187 26.4888 21.8232V21.8357H26.3645ZM26.451 21.6998H26.4813C26.5145 21.6998 26.5299 21.6747 26.5299 21.634C26.5299 21.593 26.5062 21.5785 26.4797 21.5785H26.451V21.6998Z" fill="#1A1919"/>
</svg>
