<svg width="32" height="32" viewBox="0 0 32 32" fill="none" xmlns="http://www.w3.org/2000/svg">
<path d="M26 4C29.3137 4 32 6.68629 32 10L32 22C32 25.3137 29.3137 28 26 28L6 28C2.68629 28 9.75697e-07 25.3137 1.12054e-06 22L1.64508e-06 10C1.78993e-06 6.68629 2.68629 4 6 4L26 4Z" fill="white"/>
<path fill-rule="evenodd" clip-rule="evenodd" d="M30 22L30 10C30 7.79086 28.2091 6 26 6L6 6C3.79086 6 2 7.79086 2 10L2 22C2 24.2091 3.79086 26 6 26L26 26C28.2091 26 30 24.2091 30 22ZM32 10C32 6.68629 29.3137 4 26 4L6 4C2.68629 4 1.78993e-06 6.68629 1.64508e-06 10L1.12054e-06 22C9.75697e-07 25.3137 2.68629 28 6 28L26 28C29.3137 28 32 25.3137 32 22L32 10Z" fill="#CCCCCC"/>
<path d="M18.4038 20.1611H13.5928V11.569H18.4038V20.1611Z" fill="#FF5F00"/>
<path d="M13.9016 15.8644C13.9016 14.1214 14.7228 12.5689 16.0017 11.5683C15.0665 10.8367 13.8863 10.4 12.6036 10.4C9.56698 10.4 7.10547 12.8464 7.10547 15.8644C7.10547 18.8823 9.56698 21.3287 12.6036 21.3287C13.8863 21.3287 15.0665 20.892 16.0017 20.1604C14.7228 19.1599 13.9016 17.6073 13.9016 15.8644Z" fill="#EB001B"/>
<path d="M24.8936 15.8644C24.8936 18.8823 22.4321 21.3287 19.3955 21.3287C18.1128 21.3287 16.9326 20.892 15.9971 20.1604C17.2762 19.1599 18.0974 17.6073 18.0974 15.8644C18.0974 14.1214 17.2762 12.5689 15.9971 11.5683C16.9326 10.8367 18.1128 10.4 19.3955 10.4C22.4321 10.4 24.8936 12.8464 24.8936 15.8644Z" fill="#F79E1B"/>
</svg>
