<svg fill="none" height="32" viewBox="0 0 32 32" width="32" xmlns="http://www.w3.org/2000/svg" xmlns:xlink="http://www.w3.org/1999/xlink"><linearGradient id="a" gradientUnits="userSpaceOnUse" x1="15.5839" x2="17.9648" y1="14.4594" y2="17.3344"><stop offset="0" stop-color="#e6772f"/><stop offset="1" stop-color="#ea9d2c"/></linearGradient><radialGradient id="b" cx="0" cy="0" gradientTransform="matrix(-1.54982135 -1.97656043 2.06549196 -1.61955257 17.1787 16.7055)" gradientUnits="userSpaceOnUse" r="1"><stop offset="0" stop-color="#ea9d2c" stop-opacity="0"/><stop offset=".328125" stop-color="#df7624" stop-opacity="0"/><stop offset=".760188" stop-color="#bf4b23" stop-opacity=".75"/><stop offset="1" stop-color="#7d3017"/></radialGradient><path d="m26 4c3.3137 0 6 2.68629 6 6v12c0 3.3137-2.6863 6-6 6h-20c-3.31371 0-5.99999902-2.6863-5.99999888-6l.00000053-12c.00000014-3.31371 2.68628835-6 5.99999835-6z" fill="#fff"/><g clip-rule="evenodd" fill-rule="evenodd"><path d="m30 22v-12c0-2.20914-1.7909-4-4-4h-20c-2.20914 0-4 1.79086-4 4v12c0 2.2091 1.79086 4 4 4h20c2.2091 0 4-1.7909 4-4zm2-12c0-3.31371-2.6863-6-6-6h-20c-3.31371 0-5.99999821 2.68629-5.99999835 6l-.00000053 12c-.00000014 3.3137 2.68628888 6 5.99999888 6h20c3.3137 0 6-2.6863 6-6z" fill="#ccc"/><path d="m6.48863 16.8161c-.22754.1946-.51719.2796-.98039.2796h-.1922v-2.3217h.1922c.4632 0 .74174.0794.98039.2836.24634.2111.39438.5366.39438.8734 0 .3384-.14804.6756-.39438.8851zm-.83691-2.6368h-1.05162v3.5114h1.04521c.55623 0 .95773-.1267 1.30965-.4061.41803-.3311.66608-.8309.66608-1.3487 0-1.0366-.80927-1.7566-1.96932-1.7566z" fill="#201d1c"/><path d="m7.95117 14.1793h.7131v3.5114h-.7131z" fill="#201d1c"/><path d="m10.4159 15.5251c-.43046-.151-.55627-.2517-.55627-.4414 0-.2206.22487-.3879.53397-.3879.2143 0 .3909.0821.5789.2826l.3723-.4674c-.3076-.259-.6758-.3902-1.0771-.3902-.64942 0-1.14439.4324-1.14439 1.004 0 .4854.2301.7316.90159.9654.2807.0934.4233.1572.4955.2005.1431.0884.2143.2152.2143.3618 0 .2856-.2365.4956-.5562.4956-.34038 0-.61579-.1631-.78063-.4693l-.46135.4276c.32984.4624.72521.6691 1.26988.6691.7429 0 1.2664-.4759 1.2664-1.1538 0-.5586-.2428-.8118-1.0569-1.0966z" fill="#201d1c"/><path d="m11.6973 15.9359c0 1.0326.847 1.8328 1.9374 1.8328.3074 0 .571-.0581.8956-.2047v-.8069c-.2868.2758-.5386.3846-.8643.3846-.7205 0-1.2308-.4989-1.2308-1.2107 0-.6726.5268-1.2054 1.1995-1.2054.3394 0 .5987.1151.8956.395v-.806c-.3136-.1518-.5709-.2146-.881-.2146-1.0841 0-1.952.8158-1.952 1.8359z" fill="#201d1c"/><path d="m20.3281 16.5367-.9786-2.3574h-.7802l1.5556 3.6h.3837l1.5858-3.6h-.7741z" fill="#201d1c"/><path d="m22.4189 17.6907h2.0293v-.595h-1.3133v-.9478h1.2635v-.5948h-1.2635v-.7791h1.3133v-.5947h-2.0293z" fill="#201d1c"/><path d="m25.8457 15.794h-.2078v-1.0621h.2194c.4471 0 .6866.1796.6866.5217 0 .3514-.2395.5404-.6982.5404zm1.4351-.5786c0-.6576-.4713-1.0361-1.2975-1.0361h-1.0629v3.5114h.7175v-1.4118h.0931l.9886 1.4118h.8804l-1.1545-1.4799c.5395-.1056.8353-.4581.8353-.9954z" fill="#201d1c"/><path d="m18.6704 15.9441c0 1.0109-.856 1.8303-1.9129 1.8303-1.0566 0-1.9128-.8194-1.9128-1.8303 0-1.0111.8562-1.8306 1.9128-1.8306 1.0569 0 1.9129.8195 1.9129 1.8306z" fill="url(#a)"/><path d="m18.6704 15.9441c0 1.0109-.856 1.8303-1.9129 1.8303-1.0566 0-1.9128-.8194-1.9128-1.8303 0-1.0111.8562-1.8306 1.9128-1.8306 1.0569 0 1.9129.8195 1.9129 1.8306z" fill="url(#b)"/></g></svg>