<svg width="32" height="32" viewBox="0 0 32 32" fill="none" xmlns="http://www.w3.org/2000/svg">
<path d="M26 4C29.3137 4 32 6.68629 32 10L32 22C32 25.3137 29.3137 28 26 28L6 28C2.68629 28 9.75697e-07 25.3137 1.12054e-06 22L1.64508e-06 10C1.78993e-06 6.68629 2.68629 4 6 4L26 4Z" fill="white"/>
<path fill-rule="evenodd" clip-rule="evenodd" d="M30 22L30 10C30 7.79086 28.2091 6 26 6L6 6C3.79086 6 2 7.79086 2 10L2 22C2 24.2091 3.79086 26 6 26L26 26C28.2091 26 30 24.2091 30 22ZM32 10C32 6.68629 29.3137 4 26 4L6 4C2.68629 4 1.78993e-06 6.68629 1.64508e-06 10L1.12054e-06 22C9.75697e-07 25.3137 2.68629 28 6 28L26 28C29.3137 28 32 25.3137 32 22L32 10Z" fill="#CCCCCC"/>
<path fill-rule="evenodd" clip-rule="evenodd" d="M18.8956 12.5C19.5849 12.5 20.1425 12.6445 20.494 12.7754L20.2516 14.1724L20.0904 14.1037C19.768 13.9729 19.3423 13.8422 18.7629 13.856C18.0593 13.856 17.7437 14.138 17.7364 14.4133C17.7364 14.7162 18.1182 14.9158 18.7415 15.2118C19.7683 15.6729 20.2445 16.2372 20.2374 16.9737C20.223 18.3157 19.0056 19.183 17.1356 19.183C16.3361 19.176 15.566 19.0174 15.148 18.8387L15.3974 17.3865L15.6321 17.4898C16.2115 17.731 16.5927 17.834 17.3042 17.834C17.8173 17.834 18.3674 17.6342 18.3745 17.2008C18.3745 16.9186 18.1401 16.7119 17.4506 16.3954C16.776 16.0855 15.8741 15.5695 15.8887 14.6403C15.8963 13.3809 17.1356 12.5 18.8956 12.5ZM12.2513 19.0867H14.0335L15.148 12.6174H13.366L12.2513 19.0867ZM23.6836 12.6174H25.0621L26.4999 19.0866H24.8498C24.8498 19.0866 24.6883 18.3433 24.6371 18.1161H22.349C22.2828 18.2881 21.9749 19.0866 21.9749 19.0866H20.105L22.7521 13.1541C22.9356 12.7343 23.2585 12.6174 23.6836 12.6174ZM23.5735 14.9847C23.5735 14.9847 23.0088 16.4232 22.862 16.7948H24.3433C24.27 16.4714 23.9326 14.9228 23.9326 14.9228L23.808 14.3654C23.7556 14.5089 23.6797 14.7063 23.6286 14.8394C23.5939 14.9296 23.5705 14.9903 23.5735 14.9847ZM10.7625 12.6174L9.0172 17.0288L8.82648 16.1341L8.82645 16.134L8.8266 16.1344L8.20328 13.1612C8.10066 12.748 7.7853 12.631 7.39665 12.6174H4.52933L4.5 12.7481C5.19927 12.9159 5.82471 13.1578 6.37273 13.4585L7.96118 19.0798H9.84576L12.647 12.6174H10.7625Z" fill="#1434CB"/>
</svg>
