<svg fill="none" height="32" viewBox="0 0 32 32" width="32" xmlns="http://www.w3.org/2000/svg"><path d="m26 4c3.3137 0 6 2.68629 6 6v12c0 3.3137-2.6863 6-6 6h-20c-3.31371 0-5.99999902-2.6863-5.99999888-6l.00000053-12c.00000014-3.31371 2.68628835-6 5.99999835-6z" fill="#fff"/><g clip-rule="evenodd" fill-rule="evenodd"><path d="m30 22v-12c0-2.20914-1.7909-4-4-4h-20c-2.20914 0-4 1.79086-4 4v12c0 2.2091 1.79086 4 4 4h20c2.2091 0 4-1.7909 4-4zm2-12c0-3.31371-2.6863-6-6-6h-20c-3.31371 0-5.99999821 2.68629-5.99999835 6l-.00000053 12c-.00000014 3.3137 2.68628888 6 5.99999888 6h20c3.3137 0 6-2.6863 6-6z" fill="#ccc"/><path d="m25.0134 9.50372-4.9252-.00128c-.0006 0-.0013 0-.0013 0-.0038 0-.0075.00068-.0112.00068-.6766.0209-1.5193.56798-1.6728 1.24248l-2.3292 10.389c-.1534.6808.2641 1.2348.9358 1.245h5.1741c.6614-.033 1.3042-.5737 1.4551-1.2406l2.3292-10.389c.1559-.6878-.2717-1.24628-.9545-1.24628z" fill="#01798a"/><path d="m16.0738 21.1346 2.3291-10.3889c.1535-.6746.9962-1.22162 1.6728-1.24252l-1.9582-.00128-3.5282-.00068c-.6784.01399-1.5321.56488-1.6855 1.24448l-2.3299 10.3889c-.154.6809.2641 1.2349.9354 1.2451h5.5002c-.6717-.0102-1.0892-.5642-.9357-1.2451z" fill="#024381"/><path d="m10.5739 21.1346 2.3298-10.389c.1535-.6795 1.0071-1.23042 1.6856-1.24441l-4.5197-.00119c-.68233 0-1.55709.5572-1.71302 1.2456l-2.32984 10.389c-.01418.0634-.02205.1255-.02674.1863v.1928c.04561.4963.42162.8577.96211.866h4.54719c-.6713-.0102-1.0895-.5643-.9354-1.2451z" fill="#dd0228"/><path d="m14.6846 17.0713h.0855c.0786 0 .1315-.0266.1563-.0792l.2222-.3354h.5952l-.1241.2206h.7137l-.0905.3379h-.8492c-.0978.1483-.2182.2181-.363.2098h-.4423zm-.0978.4843h1.5636l-.0997.3671h-.6288l-.0959.3543h.6118l-.0996.367h-.6119l-.1421.5236c-.0352.0875.011.1269.138.1179h.4987l-.0924.3411h-.9574c-.1815 0-.2437-.1046-.1868-.3144l.1817-.6682h-.3911l.0994-.367h.3911l.0959-.3543h-.3739zm2.4956-.9014-.0246.2149s.2949-.2232.5628-.2232h.9898l-.3785 1.3813c-.0314.1579-.166.2364-.4038.2364h-1.1219l-.2627.9699c-.0152.052.0062.0786.0628.0786h.2208l-.0812.3011h-.5612c-.2154 0-.305-.0653-.2695-.1964l.7426-2.7626zm.8382.3905h-.8835l-.1056.3727s.1471-.1071.393-.1109c.2452-.0039.525 0 .525 0zm-.3201.8646c.0654.0089.1019-.0171.1063-.0786l.0541-.1965h-.8848l-.0742.2751zm-.5968.4463h.5101l-.0095.2224h.1358c.0686 0 .1026-.0221.1026-.0658l.0402-.144h.4239l-.0566.2098c-.0479.175-.1748.2663-.3811.2752h-.2717l-.0012.3803c-.005.0609.0496.092.1621.092h.2554l-.0824.3011h-.6125c-.1717.0082-.2558-.0742-.2541-.2492z" fill="#fff"/><path d="m10.8238 14.814c-.0692.3417-.2296.6041-.4783.7905-.2465.1832-.5644.2751-.95362.2751-.36629 0-.63483-.0939-.80619-.2821-.11885-.1338-.17798-.3037-.17798-.5091 0-.0849.01009-.1762.03022-.2744l.4147-2.0158h.62633l-.40906 1.993c-.01259.0551-.01761.1065-.01695.1528-.00066.102.02448.1857.07542.251.0742.097.19463.1451.36222.1451.19272 0 .35152-.0475.47476-.1432.12325-.0951.20375-.2301.23995-.4057l.4103-1.993h.6232z" fill="#fff"/><path d="m13.4541 14.0209h.4905l-.3842 1.799h-.4896zm.1544-.6554h.4949l-.0925.4367h-.4948z" fill="#fff"/><path d="m14.3788 15.683c-.1283-.1236-.1931-.2903-.1937-.502 0-.0362.0021-.0774.0069-.1224.0047-.0457.0107-.09.0192-.1312.0581-.2922.182-.5242.3729-.6954.1905-.1718.4204-.258.6895-.258.2204 0 .3952.0621.5232.1864.128.1249.1921.2934.1921.5078 0 .0367-.0028.0792-.0075.1248-.0057.0463-.0126.0907-.0205.1344-.0569.2878-.1804.5173-.3713.6853-.1908.1692-.42.2535-.6873.2535-.2214 0-.3956-.0609-.5235-.1832zm.9347-.3562c.0865-.0945.1484-.2378.1862-.4285.0056-.0298.0106-.0609.0138-.092.0031-.0304.0044-.0589.0044-.0849 0-.111-.028-.1971-.0843-.258-.0559-.0615-.1355-.0919-.2383-.0919-.1358 0-.2465.0481-.3332.1445-.0875.0964-.1494.2422-.1884.4361-.0054.0298-.0098.0596-.0138.0888-.0032.0298-.0041.0577-.0035.083 0 .1103.028.1953.0843.2555.0559.0602.1351.09.2392.09.1365 0 .2472-.0476.3336-.1426z" fill="#fff"/><path d="m19.1714 17.0865.1183-.4197h.598l-.0258.154s.3056-.154.5257-.154h.7394l-.1175.4197h-.1163l-.5578 1.979h.1163l-.1107.393h-.1163l-.0484.1706h-.5791l.0483-.1706h-1.1426l.1114-.393h.1144l.5584-1.979zm.6452 0-.1522.5356s.2604-.1007.4849-.1293c.0496-.187.1144-.4063.1144-.4063zm-.2227.7866-.1527.561s.2886-.1432.4867-.1553c.0572-.2168.1145-.4057.1145-.4057zm.112 1.1924.1145-.4069h-.4464l-.1151.4069zm1.4463-2.4246h.5623l.0238.2091c-.0037.0532.0277.0786.0943.0786h.0994l-.1005.3544h-.4133c-.1578.0082-.2389-.0526-.2464-.1839zm-.1647.76h1.8211l-.1069.3804h-.5798l-.0994.3536h.5792l-.1075.3797h-.6451l-.146.2226h.3158l.0729.4456c.0087.0444.0477.0659.1144.0659h.098l-.103.367h-.3471c-.1799.0089-.2729-.0519-.2805-.1831l-.0837-.407-.2873.433c-.068.1223-.1724.1794-.3132.1705h-.5301l.1031-.3671h.1654c.068 0 .1245-.0304.1754-.0919l.4497-.6555h-.5798l.1075-.3797h.6288l.1-.3536h-.6294z" fill="#fff"/><path d="m11.4003 14.0204h.4424l-.0506.2599.0635-.0742c.1434-.1546.3176-.2314.5232-.2314.1861 0 .3204.0546.4047.1642.0829.1097.1056.2612.0663.4558l-.2437 1.226h-.4546l.2201-1.1113c.0226-.1147.0164-.2003-.0186-.2554-.0346-.0552-.1006-.0824-.1959-.0824-.1169 0-.2154.0367-.2955.1096-.0805.0736-.1337.1756-.1598.3056l-.2028 1.0339h-.4555z" fill="#fff"/><path d="m16.4735 14.0204h.4427l-.0502.2599.0628-.0742c.1435-.1546.3183-.2314.5233-.2314.1861 0 .3206.0546.4042.1642.0825.1097.1064.2612.0661.4558l-.2427 1.226h-.4553l.2201-1.1113c.0226-.1147.0164-.2003-.0182-.2554-.0359-.0552-.1007-.0824-.1956-.0824-.117 0-.215.0367-.2962.1096-.0805.0736-.1339.1756-.159.3056l-.2038 1.0339h-.455z" fill="#fff"/><path d="m18.6621 12.9047h1.2853c.2471 0 .4383.0564.5697.1673.1308.1122.1963.2733.1963.4831v.0063c0 .0399-.0027.0849-.0064.1337-.0063.0482-.0145.097-.0251.1477-.0566.2777-.1881.5008-.3912.6701-.2038.1686-.4452.2536-.7231.2536h-.6893l-.2131 1.0541h-.5968zm.3212 1.3546h.5717c.149 0 .2672-.0349.3534-.1039.0855-.0698.1421-.1762.1735-.3208.005-.0267.0081-.0507.012-.0729.0019-.0209.0044-.0419.0044-.0621 0-.1033-.0364-.1781-.1094-.225-.073-.0476-.1874-.0704-.3459-.0704h-.4855z" fill="#fff"/><path d="m23.3848 16.1687c-.1887.4044-.3685.6402-.4741.7498-.1057.1085-.315.3608-.8194.3417l.0434-.3086c.4244-.1319.6539-.7259.7847-.989l-.1559-1.9372.3283-.0044h.2754l.0296 1.2152.5162-1.2152h.5226z" fill="#fff"/><path d="m21.9233 14.1673-.2076.144c-.217-.1712-.415-.277-.7973-.0983-.5207.2434-.9559 2.1103.4779 1.4954l.0817.0976.5641.0146.3704-1.6964zm-.3208.9274c-.0906.2695-.293.4476-.4514.3969-.1585-.0495-.2151-.3094-.1233-.5794.0905-.2701.2943-.4476.4515-.3968.1584.0494.2156.3093.1232.5793z" fill="#fff"/></g></svg>