<svg fill="none" height="32" viewBox="0 0 32 32" width="32" xmlns="http://www.w3.org/2000/svg" xmlns:xlink="http://www.w3.org/1999/xlink"><linearGradient id="a"><stop offset="0" stop-color="#007940"/><stop offset=".2285" stop-color="#00873f"/><stop offset=".7433" stop-color="#40a737"/><stop offset="1" stop-color="#5cb531"/></linearGradient><linearGradient id="b" gradientUnits="userSpaceOnUse" x1="19.0821" x2="24.0148" xlink:href="#a" y1="16.651" y2="16.651"/><linearGradient id="c" gradientUnits="userSpaceOnUse" x1="19.0822" x2="24.0148" xlink:href="#a" y1="15.8822" y2="15.8822"/><linearGradient id="d" gradientUnits="userSpaceOnUse" x1="19.082" x2="24.0144" xlink:href="#a" y1="15.0458" y2="15.0458"/><linearGradient id="e" gradientUnits="userSpaceOnUse" x1="8.04022" x2="13.0488" y1="15.8822" y2="15.8822"><stop offset="0" stop-color="#1f286f"/><stop offset=".4751" stop-color="#004e94"/><stop offset=".8261" stop-color="#0066b1"/><stop offset="1" stop-color="#006fbc"/></linearGradient><linearGradient id="f" gradientUnits="userSpaceOnUse" x1="13.535" x2="18.3993" y1="15.8822" y2="15.8822"><stop offset="0" stop-color="#6c2c2f"/><stop offset=".1735" stop-color="#882730"/><stop offset=".5731" stop-color="#be1833"/><stop offset=".8585" stop-color="#dc0436"/><stop offset="1" stop-color="#e60039"/></linearGradient><clipPath id="g"><path d="m7 9h18v13.8293h-18z"/></clipPath><path d="m26 4c3.3137 0 6 2.68629 6 6v12c0 3.3137-2.6863 6-6 6h-20c-3.31371 0-5.99999902-2.6863-5.99999888-6l.00000053-12c.00000014-3.31371 2.68628835-6 5.99999835-6z" fill="#008eed"/><path clip-rule="evenodd" d="m30 22v-12c0-2.20914-1.7909-4-4-4h-20c-2.20914 0-4 1.79086-4 4v12c0 2.2091 1.79086 4 4 4h20c2.2091 0 4-1.7909 4-4zm2-12c0-3.31371-2.6863-6-6-6h-20c-3.31371 0-5.99999821 2.68629-5.99999835 6l-.00000053 12c-.00000014 3.3137 2.68628888 6 5.99999888 6h20c3.3137 0 6-2.6863 6-6z" fill="#000" fill-opacity=".18" fill-rule="evenodd"/><g clip-path="url(#g)"><path d="m25 20.0085c0 1.5366-1.2512 2.7878-2.7878 2.7878h-15.16825v-11.0415c0-1.5365 1.25121-2.78776 2.7878-2.78776h15.16825z" fill="#fff"/><path d="m20.061 17.1768h1.1525c.0329 0 .1097-.011.1427-.011.2195-.0439.4061-.2415.4061-.5159 0-.2634-.1866-.4609-.4061-.5158-.033-.011-.0988-.011-.1427-.011h-1.1525z" fill="url(#b)"/><path d="m21.0818 9.89996c-1.0976 0-1.9976.88904-1.9976 1.99754v2.0744h2.8207c.0659 0 .1427 0 .1976.011.6366.0329 1.1085.3622 1.1085.9329 0 .45-.3182.8342-.9109.911v.0219c.6475.0439 1.1414.4061 1.1414.9659 0 .6037-.5487.9988-1.2731.9988h-3.0952v4.061h2.9305c1.0976 0 1.9976-.8891 1.9976-1.9976v-9.97684z" fill="url(#c)"/><path d="m21.6196 15.0475c0-.2634-.1866-.439-.4061-.4719-.022 0-.0769-.011-.1098-.011h-1.0427v.9658h1.0427c.0329 0 .0988 0 .1098-.0109.2195-.033.4061-.2086.4061-.472z" fill="url(#d)"/><path d="m10.0403 9.89996c-1.09759 0-1.99759.88904-1.99759 1.99754v4.9281c.55976.2744 1.14147.45 1.72317.45.69142 0 1.06462-.4171 1.06462-.9878v-2.3269h1.7122v2.3159c0 .9-.5597 1.6354-2.4585 1.6354-1.15246 0-2.05246-.2525-2.05246-.2525v4.2037h2.93046c1.0976 0 1.9976-.889 1.9976-1.9976v-9.96584z" fill="url(#e)"/><path d="m15.561 9.89996c-1.0975 0-1.9975.88904-1.9975 1.99754v2.6122c.5049-.428 1.3829-.7024 2.7988-.6366.7573.033 1.5695.2415 1.5695.2415v.8451c-.4061-.2085-.8891-.3951-1.5147-.439-1.0756-.0768-1.7231.45-1.7231 1.3719 0 .933.6475 1.4598 1.7231 1.372.6256-.0439 1.1086-.2415 1.5147-.439v.8451s-.8013.2085-1.5695.2415c-1.4159.0658-2.2939-.2086-2.7988-.6366v4.6097h2.9305c1.0975 0 1.9975-.889 1.9975-1.9975v-9.98784z" fill="url(#f)"/></g></svg>