<svg fill="none" viewBox="0 0 24 24" xmlns="http://www.w3.org/2000/svg">
  <path fill="#DE5833" fill-rule="evenodd" d="M12 22c5.523 0 10-4.477 10-10S17.523 2 12 2 2 6.477 2 12s4.477 10 10 10" clip-rule="evenodd"/>
  <path fill="#DDD" fill-rule="evenodd" d="M13.406 19.46c0-.077.02-.095-.229-.59-.66-1.322-1.323-3.185-1.021-4.387.055-.218-.622-8.085-1.1-8.338-.532-.283-1.186-.733-1.784-.833-.304-.048-.702-.025-1.013.017-.056.007-.058.106-.005.124.204.07.452.19.599.371.027.035-.01.089-.054.09-.138.006-.388.063-.718.344-.038.032-.006.092.043.082.709-.14 1.433-.07 1.86.317.027.025.013.07-.024.08-3.702 1.006-2.969 4.227-1.983 8.179.878 3.52 1.208 4.655 1.312 5q.016.052.066.073c1.275.508 4.051.53 4.051-.333v-.195Z" clip-rule="evenodd"/>
  <path fill="#fff" d="M13.914 20.203c-.449.176-1.328.254-1.836.254-.744 0-1.816-.117-2.207-.293a88 88 0 0 1-1.676-5.966l-.07-.286v-.002c-.848-3.462-1.54-6.29 2.254-7.178.035-.008.052-.05.029-.077-.436-.516-1.251-.686-2.282-.33-.043.015-.08-.028-.053-.064.202-.279.597-.493.792-.587.04-.02.038-.079-.004-.092a4 4 0 0 0-.59-.14c-.058-.01-.063-.109-.005-.117 1.462-.196 2.989.243 3.755 1.207a.05.05 0 0 0 .029.018c2.805.603 3.006 5.037 2.682 5.24-.063.039-.267.016-.537-.014-1.091-.122-3.252-.364-1.469 2.96.018.033-.005.077-.042.082-1.006.157.283 3.309 1.23 5.385"/>
  <path fill="#3CA82B" d="M15.169 16.172c-.213-.1-1.035.49-1.58.942-.114-.162-.328-.279-.813-.195-.424.074-.658.177-.762.353-.67-.254-1.795-.646-2.067-.267-.297.413.074 2.368.47 2.622.205.133 1.191-.501 1.706-.938.083.117.217.184.492.178.416-.01 1.09-.107 1.195-.3a.2.2 0 0 0 .017-.042c.529.198 1.46.407 1.669.376.542-.081-.076-2.613-.327-2.73Z"/>
  <path fill="#4CBA3C" d="M13.64 17.172q.033.06.055.125c.076.21.199.882.106 1.048s-.697.246-1.07.252c-.372.007-.456-.13-.531-.34-.06-.17-.09-.566-.09-.794-.015-.337.108-.455.677-.547.422-.069.644.01.773.146.598-.446 1.596-1.076 1.693-.96.486.573.547 1.94.442 2.49-.034.18-1.641-.178-1.641-.372 0-.805-.21-1.026-.415-1.048Zm-3.52-.252c.13-.208 1.198.05 1.784.312 0 0-.12.545.071 1.188.056.188-1.348 1.024-1.531.88-.212-.166-.602-1.942-.325-2.38Z"/>
  <path fill="#FC3" fill-rule="evenodd" d="M10.636 12.688c.086-.375.489-1.083 1.925-1.066.726-.002 1.629 0 2.227-.068a8 8 0 0 0 1.988-.483c.622-.237.843-.185.92-.043.085.156-.015.426-.232.673-.415.474-1.162.841-2.48.95-1.317.109-2.19-.245-2.566.33-.162.25-.037.834 1.238 1.018 1.722.249 3.136-.3 3.31.032.175.33-.831 1.004-2.556 1.018s-2.802-.604-3.184-.91c-.485-.39-.702-.959-.59-1.45Z" clip-rule="evenodd"/>
  <g fill="#14307E" opacity=".8">
    <path d="M12.833 8.582c.096-.157.31-.279.658-.279.35 0 .514.14.627.294.024.032-.012.069-.048.053l-.026-.011a1.3 1.3 0 0 0-.553-.128 1.14 1.14 0 0 0-.582.13c-.039.02-.1-.021-.076-.059m-3.931.202a1.25 1.25 0 0 1 .794-.079c.04.01.067-.033.035-.059-.146-.118-.473-.264-.9-.105-.38.142-.56.437-.561.63 0 .047.094.05.118.012.066-.105.175-.257.514-.4Z"/>
    <path fill-rule="evenodd" d="M13.788 10.738a.542.542 0 1 1-.002-1.08.542.542 0 0 1 .002 1.08m.382-.72a.14.14 0 0 0-.281 0 .14.14 0 0 0 .281 0m-3.979.552a.632.632 0 1 1-1.263 0 .632.632 0 0 1 1.263 0m-.186-.208a.164.164 0 0 0-.328 0 .164.164 0 0 0 .328 0" clip-rule="evenodd"/>
  </g>
  <path fill="#fff" fill-rule="evenodd" d="M12 20a8 8 0 1 0 0-16 8 8 0 0 0 0 16m0 1a9 9 0 1 0 0-18 9 9 0 0 0 0 18" clip-rule="evenodd"/>
</svg>
