<svg fill="none" viewBox="0 0 24 24" xmlns="http://www.w3.org/2000/svg">
    <path fill="#000" fill-rule="evenodd" d="M15.334 6.667a2 2 0 1 0 0 4 2 2 0 0 0 0-4Zm-.667 2a.667.667 0 1 1 1.333 0 .667.667 0 0 1-1.333 0Z" clip-rule="evenodd"/>
    <path fill="#000" fill-rule="evenodd" d="M14.667 4a5.333 5.333 0 0 0-5.188 6.578l-5.284 5.284a.667.667 0 0 0-.195.471v3c0 .369.298.667.667.667h2.666c.737 0 1.334-.597 1.334-1.333V18h.666c.737 0 1.334-.597 1.334-1.333v-1.334H12c.177 0 .346-.07.471-.195l.688-.688A5.333 5.333 0 1 0 14.667 4Zm-4 5.333a4 4 0 1 1 2.555 3.732.667.667 0 0 0-.713.15l-.785.785H10a.667.667 0 0 0-.667.667v2H8a.667.667 0 0 0-.667.666v1.334h-2v-2.058l5.365-5.364a.667.667 0 0 0 .163-.677 3.996 3.996 0 0 1-.194-1.235Z" clip-rule="evenodd"/>
</svg>
