<svg fill="none" viewBox="0 0 24 24" xmlns="http://www.w3.org/2000/svg">
    <g fill="#000" clip-path="url(#ddg-password-icon-focused_svg__a)">
        <path fill-opacity=".1" d="M24 12c0-6.627-5.373-12-12-12S0 5.373 0 12s5.373 12 12 12 12-5.373 12-12Z"/>
        <path fill-opacity=".9" fill-rule="evenodd" d="M15.25 6.75a2 2 0 1 0 0 4 2 2 0 0 0 0-4Zm-.5 2a.5.5 0 1 1 1 0 .5.5 0 0 1-1 0Z" clip-rule="evenodd"/>
        <path fill-opacity=".9" fill-rule="evenodd" d="M14.625 4a5.375 5.375 0 0 0-5.244 6.559l-5.161 5.16a.75.75 0 0 0-.22.531v3c0 .414.336.75.75.75h2.997c.554 0 1.003-.45 1.003-1.003V18h.997c.554 0 1.003-.45 1.003-1.003V15.5H12a.75.75 0 0 0 .53-.22l.71-.71A5.38 5.38 0 0 0 20 9.375 5.375 5.375 0 0 0 14.625 4ZM10.75 9.375a3.875 3.875 0 1 1 2.54 3.64.75.75 0 0 0-.789.173L11.69 14H10a.75.75 0 0 0-.75.75v1.75H8a.75.75 0 0 0-.75.75v1.25H5.5v-1.94l5.248-5.248a.75.75 0 0 0 .184-.758 3.869 3.869 0 0 1-.182-1.179Z" clip-rule="evenodd"/>
    </g>
</svg>
