<svg fill="none" width="24px" height="24px" viewBox="0 0 24 24" xmlns="http://www.w3.org/2000/svg">
    <path fill="#000" d="M8.047 4.625C7.937 4.125 7.862 4 7.5 4c-.362 0-.438.125-.547.625-.068.31-.177 1.338-.251 2.077-.738.074-1.767.183-2.077.251-.5.11-.625.184-.625.547 0 .362.125.437.625.547.31.067 1.336.177 2.074.25.073.767.185 1.842.254 2.078.11.375.185.625.547.625.362 0 .438-.125.547-.625.068-.31.177-1.336.25-2.074.767-.073 1.842-.185 2.078-.254.375-.11.625-.185.625-.547 0-.363-.125-.438-.625-.547-.31-.068-1.339-.177-2.077-.251-.074-.739-.183-1.767-.251-2.077Z"/>
    <path fill="#000" d="M14.681 5.199c-.766 0-1.482.21-2.093.578a.636.636 0 0 1-.655-1.09 5.34 5.34 0 1 1 1.302 9.722l-.775.776a.636.636 0 0 1-.45.186h-1.398v1.65c0 .493-.4.893-.893.893H8.578v1.141c0 .494-.4.893-.894.893H4.636A.636.636 0 0 1 4 19.313V16.26c0-.169.067-.33.186-.45l5.562-5.562a.636.636 0 1 1 .9.9l-5.376 5.375v2.153h2.034v-1.399c0-.35.285-.636.636-.636H9.34v-1.907c0-.351.284-.636.635-.636h1.771l.864-.863a.636.636 0 0 1 .668-.147 4.069 4.069 0 1 0 1.402-7.89Z"/>
    <path fill="#000" fill-rule="evenodd" d="M13.625 8.499a1.875 1.875 0 1 1 3.75 0 1.875 1.875 0 0 1-3.75 0Zm1.875-.625a.625.625 0 1 0 0 1.25.625.625 0 0 0 0-1.25Z" clip-rule="evenodd"/>
    <path fill="#000" d="M4.625 12.125a.625.625 0 1 0 0-1.25.625.625 0 0 0 0 1.25Z"/>
</svg>
