<svg fill="none" viewBox="0 0 24 24" xmlns="http://www.w3.org/2000/svg">
    <g fill="#000" clip-path="url(#ddg-generate-icon-focused_svg__a)">
        <path fill-opacity=".1" d="M24 12c0-6.627-5.373-12-12-12S0 5.373 0 12s5.373 12 12 12 12-5.373 12-12Z"/>
        <path d="M8.058 4.625C7.948 4.125 7.873 4 7.51 4c-.363 0-.438.125-.547.625-.068.31-.178 1.339-.251 2.077-.739.074-1.768.183-2.077.251-.5.11-.625.185-.625.547 0 .362.125.437.625.547.309.067 1.335.177 2.073.25.074.767.186 1.842.255 2.078.11.375.184.625.547.625.362 0 .437-.125.547-.625.067-.31.177-1.336.25-2.074.767-.073 1.842-.185 2.078-.254.375-.11.625-.185.625-.547 0-.362-.125-.438-.625-.547-.31-.068-1.339-.177-2.077-.251-.074-.738-.184-1.767-.251-2.077Z"/>
        <path d="M14.692 5.272a4.04 4.04 0 0 0-2.093.578.636.636 0 0 1-.655-1.09 5.34 5.34 0 1 1 1.302 9.723l-.775.775a.636.636 0 0 1-.45.186h-1.398v1.65c0 .493-.4.893-.894.893H8.59v1.141c0 .494-.4.893-.894.893H4.647a.636.636 0 0 1-.636-.635v-3.052c0-.169.067-.33.186-.45l5.562-5.562a.636.636 0 1 1 .9.9l-5.377 5.375v2.153h2.035v-1.399c0-.35.284-.636.636-.636H9.35v-1.907c0-.351.285-.636.636-.636h1.771l.864-.863a.636.636 0 0 1 .668-.147 4.069 4.069 0 1 0 1.402-7.89Z"/>
        <path fill-rule="evenodd" d="M13.636 8.5a1.875 1.875 0 1 1 3.75-.001 1.875 1.875 0 0 1-3.75 0Zm1.875-.626a.625.625 0 1 0 0 1.25.625.625 0 0 0 0-1.25Z" clip-rule="evenodd"/>
        <path d="M4.636 12.125a.625.625 0 1 0 0-1.25.625.625 0 0 0 0 1.25Z"/>
    </g>
</svg>
