<svg fill="none" viewBox="0 0 24 24" xmlns="http://www.w3.org/2000/svg">
  <path fill="#764310" d="M11.224 4.64a.9.9 0 0 0 .647-.165 5.47 5.47 0 0 1 3.127-.975A5.504 5.504 0 0 1 20.5 9.006a5.504 5.504 0 0 1-6.84 5.343c-.59-.148-1.281-.028-1.771.462l-2.557 2.558a.5.5 0 0 1-.354.147h-.982a1.5 1.5 0 0 0-1.5 1.5v.734a.75.75 0 0 1-.75.75h-.993a1.25 1.25 0 0 1-1.25-1.244l-.003-.494a2.25 2.25 0 0 1 .659-1.602l5.04-5.043c.343-.344.461-.711.479-1.095.027-.582-.737-.847-1.179-.467l-.066.056a.7.7 0 0 0-.158.232.8.8 0 0 1-.137.213L3.098 16.1A3.75 3.75 0 0 0 2 18.77l.003.494A2.75 2.75 0 0 0 4.753 22h.992a2.25 2.25 0 0 0 2.25-2.25v-.734h.983a2 2 0 0 0 1.415-.586l2.557-2.559c.059-.059.182-.108.346-.067A7.004 7.004 0 0 0 22 9.006 7.004 7.004 0 0 0 10.826 3.38c-.533.395-.26 1.166.397 1.26Z"/>
  <path fill="#764310" fill-rule="evenodd" d="M15.5 6a2.5 2.5 0 1 1 0 5 2.5 2.5 0 0 1 0-5m0 1.5a1 1 0 1 0 0 2 1 1 0 0 0 0-2" clip-rule="evenodd"/>
  <path fill="#764310" d="M7.125 2.804C7 2.16 6.915 2 6.5 2c-.414 0-.5.16-.625.804-.08.413-.212 1.82-.296 2.775-.954.084-2.362.216-2.775.296C2.16 6 2 6.085 2 6.5c0 .414.161.5.804.625.412.08 1.818.212 2.772.296.083.989.218 2.461.3 2.775.124.483.21.804.624.804s.5-.16.625-.804c.08-.412.212-1.817.296-2.771.99-.084 2.462-.219 2.776-.3C10.679 7 11 6.915 11 6.5c0-.414-.16-.5-.803-.625-.413-.08-1.821-.212-2.775-.296-.085-.954-.216-2.362-.297-2.775m-4.342 8.761a.783.783 0 1 0 0-1.565.783.783 0 0 0 0 1.565"/>
</svg>
