<svg fill="none" viewBox="0 0 24 24" xmlns="http://www.w3.org/2000/svg">
  <path fill="#764310" fill-opacity=".9" fill-rule="evenodd" d="M15.5 6a2.5 2.5 0 1 1 0 5 2.5 2.5 0 0 1 0-5m0 1.5a1 1 0 1 0 0 2 1 1 0 0 0 0-2" clip-rule="evenodd"/>
  <path fill="#764310" fill-opacity=".9" fill-rule="evenodd" d="M14.998 2A7.005 7.005 0 0 1 22 9.007a7.004 7.004 0 0 1-8.705 6.797c-.163-.041-.286.008-.345.067l-2.557 2.559a2 2 0 0 1-1.415.586h-.982v.734A2.25 2.25 0 0 1 5.745 22h-.993a2.75 2.75 0 0 1-2.75-2.735L2 18.77a3.75 3.75 0 0 1 1.098-2.67l5.04-5.043c.06-.06.107-.183.066-.346a7 7 0 0 1-.208-1.704A7.004 7.004 0 0 1 14.998 2m0 1.5a5.504 5.504 0 0 0-5.337 6.848c.147.589.027 1.279-.462 1.768l-5.04 5.044a2.25 2.25 0 0 0-.659 1.603l.003.494a1.25 1.25 0 0 0 1.25 1.243h.992a.75.75 0 0 0 .75-.75v-.734a1.5 1.5 0 0 1 1.5-1.5h.983a.5.5 0 0 0 .353-.147l2.558-2.559c.49-.49 1.18-.609 1.77-.461a5.504 5.504 0 0 0 6.84-5.342A5.505 5.505 0 0 0 15 3.5Z" clip-rule="evenodd"/>
</svg>
