<svg fill="none" viewBox="0 0 24 24" xmlns="http://www.w3.org/2000/svg">
  <path fill="#000" fill-opacity=".9" fill-rule="evenodd" clip-rule="evenodd" d="M17.165 13.4141C18.0588 12.5212 19.3589 12.2843 20.4707 12.7002V12.6982C20.4835 12.7031 20.4962 12.7084 20.5088 12.7139C20.9002 12.8661 21.2678 13.0993 21.584 13.415C22.8046 14.6346 22.8056 16.6115 21.5859 17.8301C21.3723 18.0435 21.1349 18.2198 20.8828 18.3584C20.7745 18.4181 20.7021 18.5297 20.7021 18.6533L20.7031 20.667C20.7031 20.7725 20.6606 20.8746 20.5859 20.9492L20.0771 21.458C19.984 21.5513 19.9838 21.7027 20.0771 21.7959L20.624 22.3418C20.8106 22.5284 20.8107 22.8311 20.624 23.0176L19.8271 23.8135C19.5791 24.0611 19.1771 24.0626 18.9277 23.8164L18.3359 23.2305C18.1546 23.0512 18.0529 22.8066 18.0527 22.5518L18.0508 18.6514C18.0506 18.5281 17.9782 18.417 17.8701 18.3574C17.6178 18.2186 17.38 18.0418 17.166 17.8281C15.9455 16.6085 15.9453 14.6326 17.165 13.4141ZM19.375 14C18.7538 14.0001 18.25 14.5037 18.25 15.125C18.2502 15.7461 18.7539 16.2499 19.375 16.25C19.9961 16.2499 20.4998 15.7461 20.5 15.125C20.5 14.5037 19.9962 14.0001 19.375 14Z"/>
  <path fill="#000" fill-opacity=".9" d="M12 2C17.0394 2 21.2057 5.72781 21.8965 10.5762C21.9698 11.0908 21.3761 11.4228 20.8848 11.2529C20.6285 11.1643 20.4394 10.9466 20.3975 10.6787C19.7625 6.61201 16.2448 3.5 12 3.5C7.30566 3.5 3.50013 7.30569 3.5 12C3.50003 13.9375 4.14878 15.7237 5.24023 17.1533C6.68327 14.9542 9.17123 13.5 12 13.5C12.8565 13.5 13.6816 13.6338 14.4561 13.8809C14.7849 13.9858 14.9707 14.3239 14.9121 14.6641C14.8303 15.1386 14.3191 15.4051 13.8574 15.2686C13.2684 15.0943 12.6453 15 12 15C9.56136 15 7.43167 16.3274 6.29492 18.3008C7.80327 19.6674 9.80432 20.5 12 20.5C13.2088 20.5 14.3584 20.247 15.3994 19.792C15.9004 19.5731 16.51 19.9 16.5322 20.4463C16.5435 20.7243 16.3928 20.9861 16.1396 21.1016C14.8781 21.677 13.4771 22 12 22C6.47719 22 2.00007 17.5228 2 12C2.00013 6.47726 6.47723 2 12 2Z"/>
  <path fill="#000" fill-opacity=".9" fill-rule="evenodd" clip-rule="evenodd" d="M12 5.5C14.2091 5.5 16 7.29086 16 9.5C16 11.7091 14.2091 13.5 12 13.5C9.79086 13.5 8 11.7091 8 9.5C8 7.29086 9.79086 5.5 12 5.5ZM12 7C10.6193 7 9.5 8.11929 9.5 9.5C9.5 10.8807 10.6193 12 12 12C13.3807 12 14.5 10.8807 14.5 9.5C14.5 8.11929 13.3807 7 12 7Z"/>
</svg>
