<svg fill="none" viewBox="0 0 24 24" xmlns="http://www.w3.org/2000/svg">
  <path fill="#000" fill-rule="evenodd" d="M16 9.5a4 4 0 1 1-8 0 4 4 0 0 1 8 0m-1.5 0a2.5 2.5 0 1 1-5 0 2.5 2.5 0 0 1 5 0" clip-rule="evenodd"/>
  <path fill="#000" fill-rule="evenodd" d="M12 22c5.523 0 10-4.477 10-10S17.523 2 12 2 2 6.477 2 12s4.477 10 10 10m0-1.5a8.47 8.47 0 0 0 5.706-2.2A6.58 6.58 0 0 0 12 15a6.58 6.58 0 0 0-5.705 3.3A8.47 8.47 0 0 0 12 20.5m0-7a8.07 8.07 0 0 1 6.76 3.653 8.5 8.5 0 1 0-13.52 0A8.07 8.07 0 0 1 12 13.5" clip-rule="evenodd"/>
</svg>
