<svg fill="none" height="13" viewBox="0 0 11 13" width="11" xmlns="http://www.w3.org/2000/svg"><path d="m1 7.60057v.00193 1.92c0 .5576.22151 1.0924.61581 1.4867.39429.3943.92907.6158 1.48669.6158h4.17c.2761 0 .54951-.0544.80459-.16.25509-.1057.48687-.2606.6821-.4558.19524-.1952.35011-.427.45577-.6821s.16004-.5285.16004-.8046v-1.92-.00193c-.00085-.43926-.13926-.86722-.39578-1.22379-.10239-.14232-.22154-.27041-.35422-.38189v-.80739c0-.91168-.36216-1.78602-1.00682-2.43068s-1.519-1.00682-2.43068-1.00682-1.78602.36216-2.43068 1.00682-1.00682 1.519-1.00682 2.43068v.80739c-.13268.11148-.25183.23957-.35422.38189-.25652.35657-.39493.78453-.39578 1.22379zm3.9687-2.63187c.05824-.05823.13662-.09171.2188-.09363.08218.00192.16056.0354.2188.09364.05912.05912.09274.13903.0937.22259v.3087h-.625v-.3087c.00096-.08356.03458-.16347.0937-.2226z" fill="#222" stroke="#fff" stroke-width="2"/></svg>