<svg width="16" height="16" viewBox="0 0 16 16" fill="none" xmlns="http://www.w3.org/2000/svg">
    <path fill-rule="evenodd" clip-rule="evenodd"
        d="M3 4.94828V7.02094C1.87064 7.1735 1 8.14132 1 9.3125V13.6875C1 14.9647 2.03534 16 3.3125 16H12.6875C13.9647 16 15 14.9647 15 13.6875V9.3125C15 8.14132 14.1294 7.1735 13 7.02094V4.94828C13 2.20843 10.7544 0 8 0C5.2456 0 3 2.20843 3 4.94828ZM8 1.25C5.9219 1.25 4.25 2.91276 4.25 4.94828V7H11.75V4.94828C11.75 2.91276 10.0781 1.25 8 1.25ZM2.25 9.3125C2.25 8.7257 2.7257 8.25 3.3125 8.25H12.6875C13.2743 8.25 13.75 8.7257 13.75 9.3125V13.6875C13.75 14.2743 13.2743 14.75 12.6875 14.75H3.3125C2.7257 14.75 2.25 14.2743 2.25 13.6875V9.3125Z"
        fill="black" fill-opacity="0.84" style="fill:black;fill-opacity:0.84;" />
    <path
        d="M3.5 11.5C3.5 10.9477 3.94772 10.5 4.5 10.5C5.05228 10.5 5.5 10.9477 5.5 11.5C5.5 12.0523 5.05228 12.5 4.5 12.5C3.94772 12.5 3.5 12.0523 3.5 11.5Z"
        fill="black" fill-opacity="0.84" style="fill:black;fill-opacity:0.84;" />
    <path
        d="M7 11.5C7 10.9477 7.44772 10.5 8 10.5C8.55228 10.5 9 10.9477 9 11.5C9 12.0523 8.55228 12.5 8 12.5C7.44772 12.5 7 12.0523 7 11.5Z"
        fill="black" fill-opacity="0.84" style="fill:black;fill-opacity:0.84;" />
    <path
        d="M10.5 11.5C10.5 10.9477 10.9477 10.5 11.5 10.5C12.0523 10.5 12.5 10.9477 12.5 11.5C12.5 12.0523 12.0523 12.5 11.5 12.5C10.9477 12.5 10.5 12.0523 10.5 11.5Z"
        fill="black" fill-opacity="0.84" style="fill:black;fill-opacity:0.84;" />
</svg>