<svg width="16" height="16" viewBox="0 0 16 16" fill="none" xmlns="http://www.w3.org/2000/svg">
    <path fill-rule="evenodd" clip-rule="evenodd" d="M3 4.94828V7.02094C1.87064 7.1735 1 8.14132 1 9.3125V13.6875C1 14.9647 2.03534 16 3.3125 16H12.6875C13.9647 16 15 14.9647 15 13.6875V9.3125C15 8.14132 14.1294 7.1735 13 7.02094V4.94828C13 2.20843 10.7544 0 8 0C5.2456 0 3 2.20843 3 4.94828ZM8 1.25C5.9219 1.25 4.25 2.91276 4.25 4.94828V7H11.75V4.94828C11.75 2.91276 10.0781 1.25 8 1.25ZM2.25 9.3125C2.25 8.7257 2.7257 8.25 3.3125 8.25H12.6875C13.2743 8.25 13.75 8.7257 13.75 9.3125V13.6875C13.75 14.2743 13.2743 14.75 12.6875 14.75H3.3125C2.7257 14.75 2.25 14.2743 2.25 13.6875V9.3125Z" fill="black" fill-opacity="0.84" style="fill:black;fill-opacity:0.84;"/>
    <path d="M3 11.5C3 10.9477 3.44772 10.5 4 10.5C4.55228 10.5 5 10.9477 5 11.5C5 12.0523 4.55228 12.5 4 12.5C3.44772 12.5 3 12.0523 3 11.5Z" fill="black" fill-opacity="0.84" style="fill:black;fill-opacity:0.84;"/>
    <path d="M5.66667 11.5C5.66667 10.9477 6.11438 10.5 6.66667 10.5C7.21895 10.5 7.66667 10.9477 7.66667 11.5C7.66667 12.0523 7.21895 12.5 6.66667 12.5C6.11438 12.5 5.66667 12.0523 5.66667 11.5Z" fill="black" fill-opacity="0.84" style="fill:black;fill-opacity:0.84;"/>
    <path d="M8.33333 11.5C8.33333 10.9477 8.78105 10.5 9.33333 10.5C9.88562 10.5 10.3333 10.9477 10.3333 11.5C10.3333 12.0523 9.88562 12.5 9.33333 12.5C8.78105 12.5 8.33333 12.0523 8.33333 11.5Z" fill="black" fill-opacity="0.84" style="fill:black;fill-opacity:0.84;"/>
    <path d="M11 11.634C11 11.0817 11.4477 10.634 12 10.634C12.5523 10.634 13 11.0817 13 11.634C13 12.1863 12.5523 12.634 12 12.634C11.4477 12.634 11 12.1863 11 11.634Z" fill="black" fill-opacity="0.84" style="fill:black;fill-opacity:0.84;"/>
 </svg>